        <!-- Generated from Galaxy2/web/main.html -->
        <svg style="width: 0; height: 0; overflow: hidden; position: fixed; visibility: hidden;">
            <symbol preserveAspectRatio="xMidYMax meet" viewBox="0 0 17 19" id="icon-platform-apple-arcade">
                <path
                    d="M12.29 5.33a3.6 3.6 0 012.03 1.2l.2.22.02.03-.48.42a3.4 3.4 0 00-1.13 1.85c-.2 1.03.02 1.97.66 2.81.32.43.7.78 1.22.98l.19.07-.2.51a8.92 8.92 0 01-1.7 2.67c-.13.14-.29.27-.45.4-.54.42-1.14.58-1.82.4l-1.02-.31c-.35-.1-.7-.2-1.07-.2-.38 0-.73.08-1.08.2l-.21.07c-.32.12-.64.23-.98.3a1.8 1.8 0 01-1.42-.3 4.15 4.15 0 01-1.07-1.08 10.78 10.78 0 01-1.67-3.36 7.56 7.56 0 01-.22-3.3c.15-.97.53-1.86 1.24-2.59a3.18 3.18 0 012.72-.96c.53.05 1.04.2 1.55.34l.64.16c.3.07.61.04.9-.05l1.26-.37a4.06 4.06 0 011.89-.1zM11.73 1l.02.36v.17a3.74 3.74 0 01-1.1 2.41c-.3.3-.63.57-1.04.73-.35.13-.72.16-1.09.19H8.5c.05-2.1 1.14-3.44 3.23-3.86z" />
            </symbol>
            <symbol preserveAspectRatio="xMidYMax meet" viewBox="0 0 19 19" id="icon-platform-battlenet">
                <path fill-rule="nonzero"
                    d="M7.92 1c1.77 0 3.65 3.95 3.65 3.95s1.92.19 3.31.84c.12-.09 1.55-2.62 1.68-3.5 0 0 .1.13.04.54-.05.33-.6 1.76-.79 2.12-.2.37-.5 1.02-.5 1.02S17.28 7 17.28 8.14c0 .87-1.48.8-1.48.8S18 10.2 18 11.61c0 1.37-2.45 1.73-4.17 1.73h-1.24s-1.2 1.68-2.37 2.4a13.9 13.9 0 002.2 3.25s-.25-.04-.5-.27c-.96-.85-2.07-2.7-2.07-2.7s-1.18.81-2.24.81c-.82 0-.94-.57-.94-.77 0-.24.15-.78.34-1.06-.22.13-1.42.77-2.49.77-1.27 0-1.48-.88-1.48-1.36 0-1.83 1.77-4.4 1.77-4.4S4 8.18 3.9 6.76c-1.61-.14-3.46.15-3.85.27-.2.04.23-.27.37-.3a14.1 14.1 0 013.43-.44c0-1.5.3-2.87 1.21-2.87.62 0 1.12.96 1.12.96S6.17 1 7.92 1zm.73 12.91c-.06.07-1.02.72-1.02.72s-.2.3-.2.57c0 .09.06.46.63.46.57 0 1.3-.43 1.3-.43zm1.19-8.46c-.96 0-1.81.32-2.39.63-.07 2.47 1.2 6.11 1.2 6.11s-.43.2-.66.29c-.44-.9-1.02-2.4-1.57-5.33-.65.8-.7 1.84-.7 2.04v.03s-.09-.03-.09-.7c0-.68.52-1.6.52-1.6L4.78 6.8c.05.83.58 4.86 3.09 6.23a21.31 21.31 0 004.67-4.09c.1.05.52.34.6.44-.91 1.22-1.99 2.4-3.84 4.02.89.09 1.65-.18 2.12-.4-.76.8-2.19.7-2.19.7s.26.63.6 1.24c.47-.28 3.83-2.64 3.85-5.73a21.87 21.87 0 00-5.86-2.03s0-.43.07-.73c.8.1 3.33.53 5.43 1.35-.31-.75-.9-1.27-1.43-1.66 1 .23 1.71 1.5 1.71 1.5l.8-1.1s-2.04-1.09-4.56-1.09zm-4.66 5.32s-.74 1.29-.74 2.21c0 .41.17.86.98.86.72 0 1.3-.18 2.02-.6-1.44-.74-2.26-2.47-2.26-2.47zm8.9-1.34a5.72 5.72 0 01-1.03 3.2s2.73.02 2.73-1.12c0-1.03-1.7-2.08-1.7-2.08zm.77-2.63c-.15.28-.8 1.27-.8 1.27.42.17 1.1.53 1.1.53l.37-.02s.47 0 .47-.5c0-.57-1.03-1.21-1.14-1.28zM5.58 4.54c-.26 0-.79.38-.79 1.72l1.49.05s-.1-1.02-.1-1.2c-.1-.26-.35-.57-.6-.57zm3.2-1.55C7.96 3 7.5 4.24 7.46 5.61c1.49-.87 3.29-.7 3.29-.7S9.59 2.98 8.78 2.98z" />
            </symbol>
            <symbol preserveAspectRatio="xMidYMax meet" viewBox="0 0 26 19" id="icon-platform-bethesda">
                <path fill-rule="nonzero"
                    d="M2 8.6h6.3V2H2v6.6zm2.2-2.3v-2H6v2H4zM10.7 17V2h8c3.8 0 4.7 2.2 4.7 3.8 0 1.5-.9 2.3-1.8 3 1.3.4 2.4 1.4 2.4 3.7 0 3-2.4 4.5-5 4.5h-8.3zm4.5-11.4v2.2h2.4c.9 0 1.4-.3 1.4-1.3 0-.8-.5-1-1.4-1h-2.4v.1zm0 5v3h2.6c1 0 1.7-.3 1.7-1.5 0-.9-.5-1.4-1.5-1.4h-2.8z" />
            </symbol>
            <symbol preserveAspectRatio="xMidYMax meet" viewBox="0 0 24 19" id="icon-platform-discord">
                <path
                    d="M9.25 2l.18.2c-3.03.8-4.4 2.28-4.4 2.28s.36-.2 1-.5C7.88 3.2 9.26 2.9 9.9 2.9h.28a14.06 14.06 0 018.53 1.69S17.32 3.2 14.48 2.3l.27-.3h.09c.44 0 2.49.13 4.68 1.89 0 0 2.48 4.67 2.48 10.43-.1-.1-1.56 2.48-5.32 2.58 0 0-.64-.8-1.1-1.49 2.2-.7 3.03-2.09 3.03-2.09-.74.5-1.38.8-1.93 1.1-.83.4-1.65.6-2.48.8-1.65.29-3.12.2-4.4 0-1.01-.2-1.84-.5-2.48-.8-.37-.2-.82-.4-1.28-.6-.1 0-.1-.1-.19-.1h-.09a4.7 4.7 0 00-.46-.3s.83 1.4 2.94 2.09c-.55.7-1.1 1.49-1.1 1.49C3.38 16.9 2 14.32 2 14.32 2 8.56 4.48 3.89 4.48 3.89 6.95 1.9 9.25 2 9.25 2zm5.78 6.56c-.97 0-1.75.89-1.75 1.98 0 1.1.78 1.99 1.75 1.99.96 0 1.74-.89 1.74-1.99S16 8.56 15.03 8.56zm-6.24 0c-.96 0-1.74.89-1.74 1.98 0 1.1.78 1.99 1.74 1.99s1.74-.89 1.74-1.99-.78-1.98-1.74-1.98z" />
            </symbol>
            <symbol preserveAspectRatio="xMidYMax meet" viewBox="0 0 17 19" id="icon-platform-epic">
                <path
                    d="M3.18 2h10.64c.81 0 1.14.28 1.18 1.03v10.63l-.01.14c-.02.18-.03.36-.2.57l-.2.15-.17.09-5.34 2.22c-.27.12-.38.17-.58.17a1 1 0 01-.46-.11l-.13-.06-5.23-2.18a3.13 3.13 0 01-.28-.13l-.2-.15c-.17-.2-.17-.39-.19-.57v-.14L2 3.18c0-.81.28-1.14 1.03-1.18h.15zm8.02 12.86H5.94l2.57.89 2.69-.9zm-6.42-4.04h-.21l-.03.01H4.5l-.02.02h-.02l-.03.01H4.4l-.02.01-.04.02-.08.03-.1.06-.02.02-.02.01-.11.1-.02.02-.03.03-.03.04-.08.13v.02l-.02.02-.04.1v.02l-.03.1v.02l-.01.08V11.92l.02.05v.05l.02.07.02.02.04.11.05.08.02.02v.02l.04.04.03.04.02.02.05.05.08.05.1.07.1.04.06.02.15.04h.39l.1-.03.07-.02h.02l.02-.01.02-.02h.03l.02-.02h.03l.02-.02h.02l.07-.05.12-.08.03-.03v-.81H4.7v.36h.36v.23l-.05.04h-.03l-.02.02-.07.01-.05.01h-.16l-.08-.02h-.03l-.02-.02-.04-.02-.02-.01-.02-.01-.06-.04-.03-.04-.02-.02-.03-.04-.02-.04-.04-.12-.01-.04V11.66l.02-.07.02-.05.02-.04.02-.04.06-.07.02-.02.04-.03.02-.01.02-.01.02-.02.09-.03.06-.02h.17l.1.03.07.04.09.05.07.06.04-.04.01-.02.08-.1.02-.02.05-.05.06-.08.02-.02.01-.02-.04-.03-.04-.04h-.02l-.02-.02-.02-.01-.02-.02h-.02l-.02-.02-.02-.01-.03-.02-.1-.04-.14-.03-.03-.01h-.02l-.05-.01h-.08zm7.86 0H12.43l-.02.01h-.03l-.09.03-.02.01-.05.02-.02.01-.02.01-.04.03-.08.06-.02.02-.02.01-.04.07-.01.02-.02.02-.03.07v.02l-.01.02-.01.05v.26l.03.06.04.06.04.06.05.05h.02l.06.05h.03l.04.03.03.01.05.02h.03l.04.02.07.03.08.01.03.01.05.01.13.04.06.02.04.02.02.01.03.04v.11l-.01.02-.03.03-.04.02h-.05l-.02.01h-.22l-.04-.02h-.03l-.02-.01-.05-.02h-.02l-.09-.05-.06-.04-.02-.01-.09-.06-.03.04-.01.01-.04.04-.01.02-.02.02-.03.04-.04.04-.01.02-.03.04-.02.02-.03.03.08.07.02.01.02.02.04.02.06.04.09.04.05.02h.03l.04.03.1.02h.02l.05.02h.1l.03.01h.28l.05-.02h.05l.04-.02.03-.01.05-.02.07-.04.02-.01.04-.03.05-.05.06-.07.01-.02.01-.02.03-.07.03-.1v-.21l-.01-.06-.02-.04-.03-.06-.04-.05-.07-.07-.02-.01-.02-.02-.04-.02-.03-.01-.02-.02h-.03l-.02-.02-.07-.03h-.03l-.04-.02-.22-.05h-.02l-.07-.03h-.02l-.02-.02h-.03l-.05-.02-.02-.02-.02-.02-.02-.04v-.06l.01-.03.02-.02.04-.03h.02l.04-.02h.16l.05.02h.02l.08.02.08.04.03.01.02.01.02.01.02.01.02.02.06.04.08-.1v-.02l.04-.04v-.03l.04-.04.04-.06.02-.02v-.02l.02-.02-.06-.05h-.02l-.02-.02-.08-.05-.07-.03-.03-.01-.04-.02h-.03l-.04-.02-.12-.03h-.11l-.05-.01zm-1.01.03h-1.44v1.84h1.45v-.42h-.98v-.31h.87v-.4h-.87v-.3h.97v-.41zm-1.81 0H9.3l-.05.08-.02.05-.02.02-.03.06-.02.02-.01.02-.1.15v.02l-.03.05-.08.12-.01.02-.02.02v.03l-.02.02-.03.04-.05-.09-.08-.12-.04-.07-.01-.02-.01-.02-.02-.02v-.02l-.02-.02-.08-.13-.01-.02-.01-.02L8.5 11l-.05-.09-.02-.02v-.02l-.02-.02H7.9v1.83h.47V11.6l.02.03.05.08.01.02.02.02.01.03.02.02v.02l.08.1.01.03.02.02.04.06.01.02.02.02.16.26h.01l.07-.1.01-.02.01-.02.06-.09.01-.02.02-.02.02-.04.02-.02v-.02l.03-.03.06-.1.01-.02.02-.02.01-.02.02-.02.02-.05.02-.02.01-.02.02-.02v-.02l.03-.04v1.09h.49v-1.84zm-2.89-.02h-.46l-.03.07v.03L6.4 11v.02l-.06.14-.02.02-.02.07-.01.02-.04.1-.03.07-.01.02v.02l-.12.26v.02l-.02.02v.03l-.04.09-.01.02-.04.1-.02.04-.01.02-.04.1-.02.04-.04.1-.02.04v.02l-.06.12v.02l-.07.16h.5l.05-.14.02-.02.01-.04.01-.03v-.02l.02-.02.02-.05v-.02h.72l.02.04.01.02.02.05.06.16.02.03v.02l.01.03h.52l-.02-.05-.02-.02-.01-.05-.06-.14-.01-.02-.06-.14-.04-.1v-.02l-.04-.07v-.02l-.02-.05L7.4 12l-.03-.1-.02-.02v-.02l-.01-.02-.03-.07-.01-.03-.01-.02-.03-.07v-.01l-.03-.06-.01-.02-.05-.14-.02-.02-.05-.14-.01-.02-.06-.14-.01-.02-.04-.1-.01-.02-.02-.05-.03-.07zm-.25.57l.04.1v.02l.02.02v.03l.03.04.02.07.01.03.06.16.01.02.01.02.01.03h-.42l.01-.02.04-.1v-.02l.04-.1.01-.02.11-.28zm5.54-8.15H11.63c-.65.05-.98.42-.98 1.12V8.3l.01.14c.05.66.41.99 1.11.99H12.37c.65-.06.97-.43.97-1.13V6.9h-.9V8.33c-.03.18-.14.27-.34.27h-.26c-.18-.03-.27-.14-.27-.36V4.33c.03-.18.15-.27.35-.27h.24c.18.03.26.15.26.36V5.6h.9V4.22c-.05-.65-.4-.97-1.1-.97zm-6.4.05H3.78v6.08h2.06v-.85H4.7V6.7h1.08v-.84H4.7V4.15h1.12V3.3zm4.35 0h-.92v6.08h.92V3.3zm-2.45 0H6.28v6.08h.92v-2.2h.52l.15-.01c.65-.05.97-.42.97-1.13V4.28c-.05-.65-.42-.98-1.12-.98zm-.16.82h.08c.17.03.26.14.26.35v1.61c-.03.18-.14.27-.34.27h-.38V4.12h.38z" />
            </symbol>
            <symbol preserveAspectRatio="xMidYMax meet" viewBox="0 0 20 19" id="icon-platform-ffxiv">
                <path
                    d="M10 17c-3 0-5.4-2.4-5.4-5.3 0-3 2.4-5.4 5.5-5.4 3 0 5.4 2.4 5.4 5.4 0 3-2.4 5.3-5.4 5.3m8.9-4.4l-.2-.6-.2-.5c-.2.6-.8 1.4-1.3 1.4s-1-.6-1-.7c0 0 .1-.3 0-.4l-.2-.5.2-.4c0-.2.4-.3.4-.6l.3-.8c0-.2-.4-.3-.5-.4 0-.2.6-.2.5-.5 0-.3-.6-.7-.7-1.2 0-.4 1-.9 1.1-.9.2 0 .3-.4 0-.4-.2 0-.1-.4 0-.5l.7-.3.2-.7c0-.3-.3 0-.6.2-.3.3-.6 0-.8 0-.2.2.2.7.1.8l-.2.4c0 .3-.7.1-.8 0 0-.1-.2-.3-.3-.2 0 0-.4.2-.5 0 0 0-.4-.1-.4.1s-.3.5-.4.5c-.2 0-.5-.4-.6-.6v-.6c0-.2-.5 0-.4.3 0 .2-.5.4-.7.4-.2 0-.3-.3-.5-.3-.3 0-.7-.2-.7-.8 0-.7.8-1 1-1l.8.2.6-.3.5.2c.1 0 .1-.2.4-.2.3 0 .5.2.6 0 0-.3.6-1 .9-1.4.3-.3.4-1.7 0-1.2-.4.4-1.1.9-1.4.7-.3-.1-.5 0-.8.4-.3.3-.8.2-1 0-.3 0-.4-.2-1 .6-.5.7-1 .8-2 .7-.9-.2-.8.7-1.3 1.5-.4.7-1 .4-1.4 0-.5-.3 0-.5 0-.5.8-.5 0-.7-.3-.7S7 3 6.7 3c-.2 0-.6 1-1 1.4-.4.4-.8.1-1 .2 0 .2.3.7.6.9.3.2-.2.5.1.7.3.2 0 1-.4.5-.3-.4-.8.8-1.2.8-.4 0-1.6-.7-1.3-.5.3.3 0 1 0 1 0 .1 1 .2 1 .5 0 .4-.7.7-.8 1 0 .2.9.7.8 1-.2.2.1 1.2.1 1.2-.1 1.3-1.2 1.2-1.5 1.3-.4 0 .9 1.5.9 1.5s1.1.3 1.1 1.1c0 .9-.6 1.1-.6 1.1.7.1 2 .4 2.9.9.8.5.2 1.1.6 1.2.5.2 1.1-.7 1.5-.6.4.1 1.1.6 1.4.6.3 0 .8-1.2 1.3-1 .6.2 1.4 1 1.4 1l.8.2c.3-2 2.2-2 2.3-2.2v-1.4c.1-.4.6-.4.8-.4.2 0 .5 0 .5-.3s.5-.8.8-1l1-.8c.2-.1.3-.3.2-.3" />
            </symbol>
            <symbol preserveAspectRatio="xMidYMax meet" viewBox="0 0 19 19" id="icon-platform-gamecube">
                <path fill-rule="evenodd"
                    d="M9.5 1L2 5.2v8.4L9.5 18l7.5-4.4V5.2l-4 2.4-3.5-2.1-3.4 2v4l3.4 2 3.5-2v-1.3l1.7-1v3.3l-5.2 3-5.2-3v-6l5.2-2.9 3.5 2 2.3-1.3z" />
            </symbol>
            <symbol preserveAspectRatio="xMidYMax meet" viewBox="0 0 19 19" id="icon-platform-generic">
                <path d="M9.5 2a7.5 7.5 0 110 15 7.5 7.5 0 010-15zm0 3a4.5 4.5 0 100 9 4.5 4.5 0 000-9z" />
            </symbol>
            <symbol preserveAspectRatio="xMidYMax meet" viewBox="0 0 19 19" id="icon-platform-gog">
                <path
                    d="M16 2c.2 0 .5 0 .7.3.2.2.3.4.3.7v13c0 .5-.4 1-1 1H3a1 1 0 01-1-1V3c0-.5.4-1 1-1zm-1 9h-3.3c-.4 0-.7.3-.7.6V14h1v-1.8c0-.1.1-.2.3-.2h.2v2h1v-1.8l.3-.2h.2v2h1v-3zm-5.8 0H7.8c-.5 0-.8.4-.8.7v1.6c0 .4.4.7.8.7h1.4c.5 0 .8-.4.8-.7v-1.6c0-.4-.4-.7-.8-.7zM6 11H4.8c-.4 0-.8.3-.8.7v1.6c0 .4.4.7.8.7H6v-1h-.8c-.1 0-.2-.1-.2-.3v-.4c0-.2 0-.3.2-.3H6v-1zm2.7 1c.2 0 .3.1.3.3v.4c0 .2-.2.3-.3.3h-.4a.3.3 0 01-.3-.3v-.4c0-.2.2-.3.3-.3zM6.4 5H4.6c-.3 0-.6.3-.6.7v1.6c0 .4.3.7.6.7h.9V7h-.3L5 6.8v-.5V6l.2-.1H6l.1.3v2.4c0 .2-.1.3-.2.3H4v1h2.4c.2 0 .3 0 .4-.2l.2-.5V5.7c0-.2 0-.4-.2-.5a.5.5 0 00-.4-.2zm8 0h-1.8c-.3 0-.6.3-.6.7v1.6c0 .4.3.7.6.7h.9V7h-.3l-.2-.2v-.5V6l.2-.1h.7l.1.3v2.4c0 .2-.1.3-.2.3H12v1h2.4c.2 0 .3 0 .4-.2l.2-.5V5.7c0-.2 0-.4-.2-.5a.5.5 0 00-.4-.2zm-4.2 0H8.8c-.5 0-.8.4-.8.7v1.6c0 .4.4.7.8.7h1.4c.5 0 .8-.4.8-.7V5.7c0-.4-.4-.7-.8-.7zm-.5 1c.2 0 .3.1.3.3v.4c0 .2-.2.3-.3.3h-.4a.3.3 0 01-.3-.3v-.4c0-.2.2-.3.3-.3z" />
            </symbol>
            <symbol preserveAspectRatio="xMidYMax meet" viewBox="0 0 21 19" id="icon-platform-gw2">
                <path fill-rule="evenodd"
                    d="M9.9 9.94l.1-.04.09-.03a.7.7 0 01.1-.03l.07-.03-.05.01-.1.03-.14.04-.09.02-.02.02v.02c0 .02.02 0 .03 0zm.46-.16c-.02.02-.06.03-.05.04l.08-.04h.02c.02-.02-.03 0-.05 0zm-3.26.99c.01-.01.03-.03.01-.02l-.1.05-.13.07-.13.07-.1.06c-.05.01-.06.02-.07.04-.03.03-.02.03 0 .03l.05-.03.05-.02.04-.02.07-.04.09-.04.06-.04c.02 0 .02 0 .04-.03l.06-.05.06-.03zm-.21.28c-.03 0-.03 0-.05.02a1 1 0 01-.07.03.72.72 0 00-.1.05l-.08.04c-.03.02-.06.02-.08.02l-.05.03-.06.03c-.02 0-.03.02-.04.04l-.04.05h.02l.09-.04.18-.08.08-.04s0-.02.04-.04l.11-.07.11-.06.06-.04c.03-.02.05-.03.02-.02l-.1.05-.04.03zm3.96 1.5a.27.27 0 01-.1.03l-.1.03c-.03 0-.04.02-.04.04v.01c-.02.05-.01.03.03.02l.1-.05.06-.02.06-.04.08-.06c.02-.02.03-.03 0-.01l-.09.05zM9.18 8.83s.02-.03.1-.07c.1-.05.14-.1.26-.2.05-.05-.13.06-.2.1-.08.05-.15.06-.24.12-.08.05-.17.08-.08.07.09 0 .16-.02.16-.02zM6.16 3.79l-.04.04c-.02.01-.03.06-.03.07-.01 0-.03.02-.03.04l-.04.04-.04.05v.02c0 .02-.04.02-.1.06l-.11.07-.04.01-.14.05-.19.06.03-.07c.02-.05.04-.05.04-.05l.01-.05c.01-.04.02-.03.03-.05l.03-.04.11-.08.1-.06.05-.02.27-.15.09-.06.03-.03.02-.03.05-.05.05-.02v.01s0 .03-.04.06l-.07.07-.01.02-.01.03-.02.06zm-.6-.58l.04-.1.01-.05.05-.07.03-.09.08-.18s.02-.08.07-.16c.05-.09.1-.2.15-.26l.11-.17v.02l-.02.07-.03.07c0 .03-.05.07-.1.16s-.09.14-.11.22c-.03.09-.04.22-.05.3v.1h.03l.01.02-.04.05c-.02.04-.05.05-.05.05h-.03v.03l.02.01-.01.03-.03-.02-.04.06a.93.93 0 01-.1.13c-.01 0-.01-.13.01-.22zm1.26 1.78l.23-.05c.13-.03.15-.05.18-.06.02-.01 0-.01 0-.03l.01-.04v-.07c.01-.02 0-.05.02-.07v-.03-.03h-.02l.03-.26.04-.1c0-.02.05-.08.05-.08s0-.02.03-.03l.02-.04-.18.02-.27.04H6.9l.05-.12.06-.15.03-.1.08-.1s.06-.09.1-.1c.05-.03.05-.04.1-.1l.1-.1c.02-.02.04 0 .04 0l-.05.06-.08.08a.22.22 0 00-.03.08c0 .04-.06.12-.08.15-.01.02-.06.1-.06.15l-.02.1-.01.06h.09l.24-.03h.15c0 .02 0 .03-.03.04l-.03.04c-.02.03-.1.17-.12.34-.02.17-.02.47-.02.47l-.03.01-.18.03-.33.05-.15.02-.4.1c-.05.01.01-.01.01-.01l.48-.14zm-.07-2.62l.05-.06.04-.05.08-.11c.04-.03.06-.04.04 0a1 1 0 00-.03.06v.07l-.03.04v.03l-.01.05s-.03.05-.1.1-.1.05-.1.05l-.01-.06c0-.03.05-.07.07-.12zm.82.9c.04-.01.05.04.03.07-.02.02-.06.02-.1 0-.02-.03 0-.06.07-.07zm-.12 2.08l-.03.02h-.08l-.06.03c-.02 0-.05.04-.05.04-.03.02 0-.04 0-.04l.03-.03.09-.1.11-.12v.2zm-.03.66v.1H7.4l-.01-.03-.02.02h-.02l-.1.02a.92.92 0 01-.08.03l.03-.07.05-.08.08-.08.07-.07c.02 0 .01.01.01.05l.01.11zm0 .54c-.02.02-.03.02-.05.02-.02 0-.02.02-.02.03l-.05.02-.04.01-.06.02h-.08s0-.03.02-.03l.05-.01.03-.03.05-.03.1-.1c.04-.04.04-.05.05-.03.01.01.02.06 0 .07l.01.02-.02.04zm-.03.4l-.04.03L7.3 7c0 .01-.03.04-.05.04a.3.3 0 00-.08.02l-.07.01H7L7 7.07h.02l.02-.02.03-.01.06-.05.12-.1c.05-.02.08-.05.1-.08l.05-.02.01.16-.03.02zM6.6 5.49c0 .24 0 .25-.04.36a6.73 6.73 0 01-.21.53l.05-.16.12-.33c.02-.06.01-.05.02-.13.02-.08.03-.23.02-.26a.54.54 0 01-.02-.15V5.2l.03-.03s0-.04.02-.04c0 0 .02.11.01.35zm-2.9.4l-.04.01-.06.05-.08.05a.56.56 0 00-.06.04.26.26 0 00-.05.09c0 .03-.03.08-.05.1a.23.23 0 00-.04.1c0 .04-.02.05-.03.05-.02 0 0-.05-.02-.11v-.13l.06-.05.1-.07h.03l.05-.06.1-.06.07-.03c.04-.02.04 0 .02.02zm4-3.81c.03-.04.05-.07.07-.07v.09c0 .03-.09 0-.06-.02zM7.8 2l.05-.05.06-.06.05-.02.04-.02s0 .03-.04.05l-.06.06-.03.06a.16.16 0 01-.07.02c-.03 0 0-.03 0-.04zm.3.53l.12-.12a.6.6 0 01.05-.04l.48-.21c.06-.03.18-.1.26-.12.07-.04.12-.04.14-.05.02-.02.07-.02.07-.02s0 .02-.03.03c-.02 0-.03 0-.06.03l-.09.03c-.05.02-.2.1-.25.15-.06.03-.12.06-.13.08-.01.02-.04.03-.07.04a.1.1 0 00-.05.04.48.48 0 01-.07.06l-.05.03-.1.1-.08.08h-.09l-.04-.02H8l.1-.1zm1.24.03c0-.02.03-.01.08 0l.43.04.32.08a16.25 16.25 0 00.01.03h-.26c-.11 0-.32 0-.5.03-.16.01-.37.03-.54.07l-.36.08s.06-.09.18-.15l.25-.13.06-.02h.09c.1-.05.1-.04.14-.04.06 0 .1.02.1 0zm.33-1.09c.05-.05.09-.05.09-.05l.06-.01.12-.03c.06-.01-.05.05-.05.05l-.05.01a.6.6 0 00-.13.07l-.08.05c-.03.01 0-.03.04-.09zm.78 1.28c.04 0 .05.07.05.07l-.17-.04c-.05-.01 0-.03.12-.03zm-2.46.38c0 .02-.04.03-.1 0-.06-.05-.04-.03.08-.07h.06l-.04.07zm3.33 2.35l-.03.04s-.08 0-.07-.05c0-.07.1 0 .1 0zm.05 2.66a.7.7 0 00.1-.05l.07-.05.05.01c0 .04.07 0 0 .04a2 2 0 00-.17.08l-.08.02c-.03 0 0-.03.03-.05zm.87-5.76c.02 0 .06.01.07.03v.05c0 .02-.05-.02-.08-.04-.04-.02-.02-.03.01-.04zm.3.03l.1.01c0 .01 0 .03-.03.03-.01 0-.03 0-.07.03-.03.02-.04.04-.07.03-.04-.02-.09-.05-.1-.07l-.01-.03-.01-.02a.8.8 0 01.2.02zm.45 4.82l.15-.09c.07-.05.07-.06.08-.09l.05-.07c.01-.04.03-.03.1-.04h.18c.06 0 .06 0 .02.02l-.08.05c-.04.03-.04.02-.07.02-.04 0-.05.02-.08.04a.36.36 0 01-.07.05l-.1.06c-.06.01-.1.02-.1.04v.06h-.1c-.04 0-.01-.02.02-.05zm.18-3.63h.05c-.02 0-.03.03-.03.03h-.06c-.04-.01 0-.03.04-.03zm.62-.08v.08l-.1-.1c-.02-.02.1.02.1.02zm-.1 1.2c.03-.02.09-.02.12-.03l.03-.01h.13c.02 0 0 .01-.01.01s-.04.03-.05.06l-.03.07.02.02s0 .02-.03.02h-.1l-.08-.02c-.03 0-.05-.05-.05-.07l.06-.06zm.16-.14h.14c-.02.01-.03.02-.1.02s-.05.02-.12.02c-.07 0 .04-.05.08-.04zm.26 1.01l.1.01c.04.02-.01.03-.05.03l-.08.01c-.03.02-.06.02-.04.04.01.01.04.05.02.05l-.07-.01-.06-.03-.06-.02c-.03 0 0-.04 0-.05.02 0 .07-.03.12-.02h.12zm.1.48l-.03.02a.21.21 0 01-.08.03l-.09.03c-.04 0-.1.04-.13.05l-.1.05a5.42 5.42 0 01.1-.16l.02-.01v-.04h.03l.04-.01H14.11l.12.01c.03 0 0 .02-.02.03zm.05-1.5a.1.1 0 01.07.03c.03.02-.05.01-.08 0-.03 0-.02-.03.01-.03zm-3.54 4.65a.5.5 0 01-.1.06s-.03.01 0-.02c.02-.02 0-.03.02-.06l-.07.06a.25.25 0 01-.1.04 1 1 0 00-.16.02l-.15.04h-.1c-.03-.02.06-.04.14-.08l.18-.08.16-.03h.15c.04-.01.08-.02.1 0l-.07.05zM8.26 4.45l.16.06.07.02.09.03c.03.01.04.02.03.03-.01.02-.05.01-.08 0l-.23-.11c-.04-.01-.07-.04-.04-.03zm.3-.02h.1l.09.04c.02 0 0 .05-.02.05l-.06-.03c-.06-.02-.12-.06-.1-.06zm-5.92 3.2l.17.04.14.05.2.07.22.06.13.02.1.01h.45l.2-.04h.22c0 .02-.04.02-.08.04a1.3 1.3 0 01-.18.06c-.06.02-.14.03-.2.03-.07 0-.18.05-.29.05l-.4-.08-.33-.05a1.5 1.5 0 00-.18-.03c-.05 0-.06 0-.03.01l.09.01.22.04c.07 0 .18.03.29.05l.21.04c.06 0 .09.01.1.02h.16l.3-.02c.06-.01.25-.03.36-.07a3.92 3.92 0 00.41-.16l.23-.1c.05-.02.09-.02.16-.07l.14-.07c.02 0 .05-.04.08-.06l.06-.02.1-.08.1-.08a.44.44 0 01.06-.06l.07-.05.13-.15.08-.08.04-.05.1-.11a.48.48 0 00.07-.08l.03-.06c.02-.01.02-.05.04-.06a.52.52 0 00.08-.07l.02-.03a.8.8 0 00.1-.15l.12-.23a.98.98 0 01.06-.14l.02-.03s0-.06.02-.09c0-.02.02-.06.01 0l.01.08.03.12.02.07.01.04c0 .02.02.03.01.05l-.04.09-.02.05c-.01.01-.02.03 0 .03h.05l.05-.02c.01 0 .02-.02.03 0l.03.11v.12l-.06.07c-.01.01-.03.01-.05.04l-.07.05-.04.03h.02l.03.03h.07l.09-.02.06-.03.01.05v.06l-.02.05-.01.05-.07.06-.06.06-.06.06c-.03.02-.02.03-.03.04l-.04.03c-.01.02-.02.03-.05.04h.14l.05-.01c.02 0 .1-.04.14-.04l.1-.03h.01a.55.55 0 00.01.13c0 .03 0 .04-.02.05l-.22.14-.3.12-.09.04h.01l.26.02.34-.03h.2l.12-.05a8 8 0 01.2-.06l.12-.06c.02 0 .02-.02.01-.06v-.09l.04-.02a.2.2 0 00.06-.02l.05-.01.02-.02h.07a1.55 1.55 0 01.17-.04l.11-.01h.1V7.2l.03.01.09.03c.02.02.07.04.12.09l.08.12.01.08c0 .01.02.03.03.01l.06-.03.06-.02.02-.02-.13-.11c-.06-.05-.2-.12-.28-.16-.09-.03-.1-.05-.13-.05l-.04-.02-.06-.01c-.02-.01-.04-.02-.03-.04 0 0-.02-.02 0-.02h.05l.03.01h.04l-.01-.01-.08-.07-.07-.07s-.03 0-.07-.03a.57.57 0 00-.13-.1s-.05 0-.07-.02c-.02 0-.04-.01-.05-.05 0-.02-.02-.02-.03-.04l-.02-.03a.36.36 0 01-.01-.11v-.06-.07-.08l.03-.12.1-.23c.01-.06.04-.1.08-.19.04-.1.08-.17.1-.19l.03-.06.06-.13c0-.03-.1-.18-.07-.22l.08-.1.04-.05.02-.02-.06-.06-.03-.05a1.58 1.58 0 00.22.23h.03v.03l.07.07.07.08.07.07a54.08 54.08 0 00.21.13h.04l.03-.03.21-.08.26-.09s.02 0 .05-.03l.14-.14.11-.09c.04-.03.08-.04.04-.04l-.18.01-.21.03c-.09 0-.14.02-.19.03l-.15.04h-.07l.08-.07.03-.02.19-.04.14-.02.13-.05.1-.05c.03 0 .12-.08.15-.1l.17-.14.08-.08H10.2l.09.02c.01 0 .05.01.02-.01a1.2 1.2 0 01-.1-.07 2.2 2.2 0 00-.1-.1c-.03-.02-.1-.1-.25-.18-.14-.08-.49-.25-.56-.27h-.04l-.06.01-.26.08c-.07 0-.13.02-.15.03l-.05.02-.15-.02a3.75 3.75 0 01-.39-.06C8.17 4 8.16 4 8.18 4h.12l.14.02h.2l.11.02c.02 0 .03 0 .02-.02l-.01-.05c-.01-.03 0-.05-.02-.07l-.03-.08v-.01l.1-.05a.3.3 0 01.05-.02l.06-.04a.21.21 0 01.05-.01l.05.02.06.01.09.02h.14l.1.01h.17l-.06-.04-.05-.03-.18-.07-.07-.02a.45.45 0 01-.08-.05l-.12-.07-.05-.02v-.01h.28l.08-.01c.02 0 .02 0-.01-.02l-.09-.03c-.02 0-.07-.04-.11-.07L9 3.25l-.07-.03h-.04v-.04-.06c-.2-.01-.52.1-.52.1l.06-.06.15-.06c.31-.13.62-.13.8-.11l.08-.01.13.02c.05 0 .1.03.16.04l.14.04.05.04.21.11a2.08 2.08 0 01.3.22h-.1-.19l.05.03.2.13.1.1a1.15 1.15 0 01.33.34l.01.07.02.04.01.04h-.03l-.1-.09-.09-.05a.78.78 0 00-.1-.05.35.35 0 01-.06-.03l-.04-.02v.01s.02.06.08.15l.2.3c.04.06.17.25.21.42.05.18.06.31.06.31l.05.01.08.04-.05.04-.08.02-.01.2-.01.27-.01.14v.06L11 5.9c.02 0 .07 0 .07.03v.12l-.02.09c0 .02 0 .05-.02.09a.8.8 0 01-.05.12l-.02.07.05-.08a.49.49 0 00.06-.12l.07-.2a.89.89 0 00.04-.21c0-.06.02-.1.01-.11v-.07s.03.01.04.04a.3.3 0 01.01.1v.31l-.02.03v.03l.01.03-.02.04-.02.08-.16.37c-.09.16-.13.24-.2.32l-.12.15c-.02.03-.02.03 0 .02.02 0 .07-.05.08-.05l.09-.01.13-.02h.07l-.01.04h.04l.03.01c.01 0 .02.04 0 .07l-.13.13c-.05.05-.08.09-.1.08-.03-.01-.02-.03-.02-.05 0 0 .01-.04 0 0l-.09.1-.08.12-.13.15c-.04.04-.04.07-.07.06-.03 0-.04 0-.04-.03l.01-.05c0-.02 0-.03-.01 0l-.06.1a.55.55 0 01-.08.07l-.02.06-.1.12-.14.13c-.04.03-.04.03-.03.04v.03l-.1.04-.04.01-.05.03c0 .02.01.01.02.01l.03.02c.01.01 0 .02.02.03v.07c0 .02 0 .03-.04.06l-.1.07-.13.06c-.03.03-.04.05-.07.06l-.15.08-.4.23-.24.16-.21.15a1.83 1.83 0 01.15-.07l.09-.04.19-.08.23-.1.25-.12.18-.08.06-.03.05-.02c.04 0 .07-.03.1-.04l.13-.05.08-.02a3.29 3.29 0 01.44-.15l.2-.08.2-.06.17-.04c.02 0 .01.02-.01.02l-.17.06-.25.1-.25.08-.23.08a.24.24 0 00-.09.04l-.06.05-.3.15-.48.25-.4.22-.18.1a.4.4 0 00-.19.1l-.12.05a1 1 0 01-.15.1l-.17.09-.13.1-.09.06.02.02h.07L8 9.96l.04-.02.04-.01.06-.02.07-.04.07-.04c.02 0 .03 0 .02-.02V9.8c.03 0 .06-.02.08-.04a.76.76 0 01.09-.04l.05-.01h.05l-.04.03-.08.05c-.04.03-.05.03-.08.07a.45.45 0 01-.04.03v.02l-.06.04-.1.07-.15.1c-.03.03-.01.03 0 .01l.07-.03.07-.04.07-.05a.85.85 0 01.1-.04l.07-.03.07-.01.04-.02h.09c.02 0 .02-.02.06-.02l.17-.02.26-.02c.15-.01.21-.01.26-.03.05-.01.07-.03.07-.03h-.03c-.04.01-.07 0-.07 0l.05-.03.02-.02-.03-.01a.26.26 0 01-.02-.06H9.3c0-.01 0-.03.02-.04.02 0 .03-.02.03-.02s-.02-.02-.01-.03a.31.31 0 01.08-.03l.1-.03.07-.02h.24c.05 0 .11 0 .17-.02.07 0 .1-.02.14-.03h.07l-.1.06-.17.12-.14.06-.12.06-.1.05-.09.06-.03.02a.36.36 0 01.07-.04h.05l.03-.02c.02 0 0 .02.03 0 .01-.01.02-.02.05-.01.03 0 .07 0 .09-.03.02-.03.03-.04.05-.04.02 0 .06 0 .07-.02 0 0 .03 0 .04-.02a.28.28 0 01.08-.04h.05l.05-.02.07-.01.07-.01.07-.03h.11l.1-.01.06-.03.13-.06.12-.06.07-.03c.02 0 .07 0 .1-.02l.12-.01.16-.04.19-.06.22-.06.26-.06.19-.02.1-.02.04-.01c0-.01.02-.02 0-.02l-.11-.01h-.28l-.2.02-.15.01-.14-.01c-.03 0-.02-.01-.03-.03l-.09-.01c-.03 0-.07-.03-.04-.05l.1-.08.24-.1.18-.07a.38.38 0 01.1-.03c.02 0 .05-.02.06 0v.05l.02.02c.02 0 .03.02.05.04l.03.03h.04l.04-.02s0-.03.03-.03l.04-.03.08-.05.15-.09.2-.1.16-.08c.03-.01.17-.06.24-.1l.17-.08c.04-.02.07-.02.06-.03l-.06.01-.47.1-.33.06c-.03 0-.06 0-.05-.01a.4.4 0 01.13-.07l.26-.1.26-.1c.06 0 .07 0 .1-.02a.2.2 0 01.07-.04c.04 0 .1-.03.1-.03l.06-.03s.02 0 0-.01l-.05-.02h-.04v-.01s0-.02-.03-.03l-.15.01h-.16l-.07.01H12.56l-.14.01-.13.02-.16.03c-.07 0-.15.02-.15 0l.06-.01c.04 0 .06 0 .08-.02.03 0 .05-.02.07-.03h.06l-.01-.02h.03l.2-.02.23-.01c.07 0 .12 0 .14-.02l.08-.01h.13c.03-.01.05-.02.12-.02h.09l.04-.01v-.02c.02-.01.03 0 .07-.04l.05-.06c.02 0 .01-.04.03-.05.01-.01.01-.03.04-.03l.07-.02.06-.04.07-.04.14-.07a3 3 0 00.1-.06c.04-.02.05-.02.07-.05l.02-.03v-.03L14 7.3c0-.01.02 0 .02-.02v-.03-.02-.01l.02-.02.02-.05a1.11 1.11 0 01.34-.28c.06-.04.07-.05.1-.05h.03c.01-.02.04-.04.02-.04h-.04c-.02 0-.01.02-.03.01h-.06l-.04-.01h-.03l-.05-.01h-.12l-.02-.02-.01-.02h-.03c-.01-.02-.03-.01-.1-.01l-.2-.01c-.03-.02-.1-.01-.14-.02h-.12l.05-.03.04-.03c0-.01.04 0 .05-.02h.06l.07-.02H13.93l.04-.01h.05c.03 0 .02-.02.03-.02h.09l.02-.02h-.27c-.02 0-.03-.02-.04-.03l-.01-.04c0-.02.01-.02.02-.03 0 0 .03-.03.1-.06l.18-.06a2.7 2.7 0 01.16-.03l-.03.04c-.03.03-.06.08-.05.1l.1.05.09.02.12.02.08.01.03.01h.06l.1-.01h-.04l-.05-.02-.05-.01h-.05l-.01-.03c-.01 0 0-.02-.02-.02-.02-.01-.09-.05-.1-.08l.05-.1c.01-.02.06-.03.09-.04l.12-.06.08-.03.02-.02h-.02l.02-.01.05-.04a.72.72 0 01.1-.05l.07-.02.04-.02h.02s0-.02-.06-.02h-.17c-.04 0-.13.01-.14 0h-.09l-.03.01h-.3s-.02 0 0 0c0-.02.03-.03.03-.04l.07-.04.08-.04a.24.24 0 01.09-.03l.07-.01h.08c0-.01 0-.02-.02-.03h.02c.02-.01.03 0 .04-.02l.02-.01-.02-.02a.24.24 0 01-.08-.08c-.02-.03-.02-.06.01-.08l.09-.04h.06l.03-.03.05-.05c.02-.02.04-.04.06-.04l.05-.02.03-.01h.03c.02-.01.02-.02-.02-.02h-.23l-.08-.02H14.55a.5.5 0 00-.09.01l-.06.03c-.02.01-.03 0-.06.03l-.06.04c-.03 0-.06-.04-.1-.08-.03-.03-.08-.12-.08-.17h.04l.03.01.04.02h.03v.01l-.01-.01a.04.04 0 01-.03-.02h-.02v-.04-.02l-.03-.03c0-.01 0-.03.02-.05.01-.01.04-.01.03-.02H14.3c.01 0 .02-.02.05-.01h.05l.04.02.03-.01h.05c.02 0 .02-.02.04-.03 0-.02.02-.06.05-.07l.1-.03.08-.02.06-.01h.04c.03 0 .05-.01.03-.02h-.04a.5.5 0 00-.1-.01c-.05 0-.08 0-.1-.02a.2.2 0 00-.1 0h-.14l-.07-.02.06-.04v-.02l.1-.03.16-.04.05-.02.15-.01.12-.01.07-.01h.06l.09-.02h-.03l-.11-.02c-.04 0-.1-.04-.17-.05-.07 0-.1 0-.14-.02-.03-.03-.1-.08-.15-.1-.05-.04-.08-.03-.08-.04a17.37 17.37 0 01-.38.1H14c-.04 0-.14.02-.16 0l-.1-.03-.03-.04a.1.1 0 01.02-.04s0-.04.02-.04h.1l.03-.01.02.01.02-.01H14l.02-.01h.05l-.04-.02.01-.01h.06l.04-.02h.05l.01-.05v-.05-.04l-.04-.08v-.08c0-.02.01-.04.03-.05l.07-.01h.1l-.05-.02-.05-.02v-.02-.02h.14l-.02-.02-.08-.01h-.06l-.07.03h-.08l-.13-.03a.46.46 0 00-.05-.02h-.05l-.07-.02h-.08l-.04-.02-.03-.02h-.06l-.05-.02c-.02 0-.03-.02-.03-.02h-.13s-.02-.02-.05-.02h-.1c-.04 0-.03 0-.03-.01l.03-.01h.04l.04-.01.04-.01.04.01h.13l.06.02h.31l.05-.01h.19l-.04-.01h-.03l-.02-.02h-.05l-.03-.01-.05-.03c-.02-.02-.04-.04-.04-.06 0-.01 0-.02.02-.02l.06-.01h.02l.02-.01-.03-.01h-.06c-.03 0-.05.02-.08 0-.03 0-.14-.09-.2-.14a.52.52 0 01-.14-.15l.01-.03s.02-.01.01-.02l-.02-.01.03-.03.06-.03.04-.02s.03-.02 0-.02h-.08a.1.1 0 00-.03 0l-.01.02h-.04l-.02-.01a.1.1 0 01-.03 0h-.03l-.07-.01H13.06l-.15-.14a.5.5 0 01-.08-.12V2.6a.53.53 0 01.1-.09h.11l.13.03.1.03.06.03.02.01h.03l-.02-.02-.06-.04a.37.37 0 00-.09-.03.52.52 0 01-.1-.02c-.03-.02-.16-.04-.24-.06a2.44 2.44 0 00-.26-.05l-.2-.02-.17-.02H12.1l-.05-.03-.1-.03h-.05l-.04-.01c0-.01-.01-.02-.04-.02h-.08.01l-.06-.04h.05l.08-.02h.47l.04.01.05.02a.1.1 0 00.05 0l.05-.01.05-.01h.14l.09.03h.03l-.12-.05c-.03 0-.08-.02-.1-.04l-.25-.09c-.06-.03-.09-.05-.12-.05l-.17-.04-.2-.05-.12-.02a.15.15 0 01-.07-.03c-.03-.03 0-.03.02-.04l.05-.01.02-.02h-.1l-.04-.01-.06-.02c-.02 0-.04-.03-.04-.05l.06-.03.08-.02.07-.03a.46.46 0 01.08-.02l.09-.02a.4.4 0 01.1-.02c.05 0 .01-.01 0-.01l-.14-.01h-.2c-.03 0-.04.02-.05.02h-.09l-.14.02-.2.03c-.1 0-.28.05-.35.07a1 1 0 00-.15.04.44.44 0 01-.08.02l-.08.02h-.08c0-.02.02-.01.03-.02 0 0 .02 0 .03-.03l.05-.03.06-.02.07-.04.08-.02c.04 0 .06-.01.07-.02.02 0 .06 0 .07-.02l.03-.01c.03 0 .05-.02.07-.03l.08-.01.09-.02.08-.03.04-.02h.05l.03-.02h.03V1.4h-.03l-.1-.01h-.2a11 11 0 00-.28 0h-.09v-.02H10.52l-.14.02a.48.48 0 00-.1.03l-.08.02-.06-.01c0-.01.01-.02.03-.02 0 0 .01 0 0 0-.02 0-.03-.01-.03-.02l.03-.03.04-.03.02-.02.02-.02.03-.01h.03l.08-.04.07-.04.06-.03.04-.02.08-.02.07-.01.11-.01c.06 0 .03 0 .04-.01l-.17-.01h-.21c-.05 0-.18.03-.26.06l-.26.1-.27.05h-.14c-.02 0-.02.01-.01.01l.02.03c0 .01-.06.06-.11.07-.06.02-.17.02-.2.02l-.18.02h-.08l-.08.06-.17.12-.2.15-.22.16-.07.04c-.01-.02.01-.03.04-.06l.09-.08c.02-.03.06-.05.12-.1l.14-.11c.03-.03.08-.07.14-.1l.16-.11.08-.07.06-.03.04-.02c.01 0 .04-.04.08-.04.03 0 .07-.02.07-.03l-.07.01c-.03 0-.15.07-.25.1l-.29.1-.2.13-.05.02-.14.1-.03.03a.4.4 0 01-.07.06c-.02 0-.02 0-.02-.05.01-.04.06-.09.1-.12.04-.04.13-.08.15-.1.03 0 .01 0 .01-.01l.01-.05a.23.23 0 01.07-.07l.12-.09.03-.03-.05.02h-.03l-.07.05-.16.11-.12.07-.13.08-.16.1-.13.1c-.02.01-.03.03-.04.02V1.8l-.05.03-.1.05-.07.05-.02.04a.8.8 0 01-.08.1.44.44 0 00-.08.12c0 .03-.02.04-.04.04s-.02-.02-.04-.03h-.02v-.06l.01-.01h-.02V2.1c0-.02 0-.03.04-.06.03-.04.07-.09.07-.11l.01-.04.06-.08a.78.78 0 01.07-.07h-.01l-.08.05-.07.05-.03.02h-.02c0-.02 0-.04.03-.07a2.9 2.9 0 01.43-.4v.03l.06-.04.19-.13.12-.09v-.01l-.19.1a18.74 18.74 0 00-.18.1h-.01l-.18.1-.2.12-.2.13-.04.03c-.02 0-.03.04-.1.08-.05.05-.19.18-.26.27-.07.08-.11.2-.12.21l-.1.08c-.05.05-.14.12-.17.13l-.04.02.04-.13.12-.21.18-.25.21-.25.1-.1.02-.01-.04-.01c0-.02.02-.06.05-.09l.15-.14.17-.1.07-.05.06-.02.11-.05a3.37 3.37 0 00.22-.1A8.55 8.55 0 018.2.8l.07-.03.27-.09.2-.06A3.32 3.32 0 009.1.4l.08-.05.05-.05.06-.07.02-.06.04-.08a.21.21 0 00.03-.07V0l-.05.02a.11.11 0 01-.06 0H9.2l-.1.02v.15L9.05.3c-.03.03-.08.15-.1.15l-.13.08a2.85 2.85 0 01-.4.13l-.3.08c-.1.03-.25.09-.38.12l-.27.06-.14.05-.25.1c-.03 0-.16.07-.22.1l-.11.05c-.03-.01.12-.1.2-.14l.19-.1.11-.05h-.06L7.08 1a.44.44 0 01-.1.07l-.26.14a1.68 1.68 0 00-.44.37l-.19.2-.1.14-.06.03-.06.06c-.02.01-.02 0-.01-.02l.02-.04s-.02 0-.02-.02v-.05l.03-.07a4.47 4.47 0 01-.29.47l-.06.08.02-.08c0-.03-.02-.06-.03-.08l-.02-.03-.03.01-.04.08-.08.16-.13.12.1-.22.14-.3.07-.13.01-.08.06-.1a.4.4 0 01.08-.11l.12-.14.05-.04.2-.15c.06-.05.04-.04 0-.02a.36.36 0 00-.09.07l-.09.06c-.04.04-.17.1-.28.2a.78.78 0 00-.17.17l-.1.07c-.03.03-.04.1-.06.12-.01.02-.1.14-.11.18l-.12.19-.13.18-.06.28c-.03.1-.05.46-.05.48 0 .02-.04.06-.07.1l-.08.16h-.07c-.05-.01-.1-.07-.1-.07h-.04l-.02-.06-.02-.03v-.1l.03-.33.02-.19-.06.18-.1.35-.04.2-.02.16v.13s.02 0 .04.03l.04.05h.02v.03h.04c.03 0 .02.02.02.03l-.04.11c-.02.03 0 .04-.01.04l.04.02.06.01c.01.01.02.03 0 .05a.74.74 0 00-.13.15s0 .02.04.02l.08.02s-.01.02-.03.02l-.1-.02-.04.03h.04c.03.02.07.04.06.05-.05.05-.24.17-.26.2l-.08.08a.75.75 0 00-.05.05l.03.04a.5.5 0 010 .16l-.06.06-.04.07a.73.73 0 01-.1.13l-.03-.06-.01-.02-.01.04c0 .02-.03.04-.09.12l-.1.12s0 .04-.02.03a.56.56 0 01-.06-.17l-.06-.2-.02-.04-.03-.05v.05l-.01.06c-.01 0-.03 0-.03.02l-.06.3-.05.3-.03.03a.17.17 0 01-.06.04.1.1 0 01-.02-.03c-.03-.06-.05-.06-.06-.08v-.02h-.03v-.03a.83.83 0 01-.08-.18c0-.03 0-.06-.01-.05l-.01.03c-.01.01-.02.02-.02.06v.1l-.01.05h-.03l-.1-.32-.09-.23c0-.02-.02 0-.02-.02s-.01-.01-.02-.03l-.02-.12a3.36 3.36 0 01-.05-.2v-.1c0-.02 0-.07-.01-.02v.32c0 .08-.02.2-.02.43v.3l.01.08c.01.02.03.04.04.1l.01.11.04.1s-.01.02-.03 0c0-.03-.02-.04-.02 0v.05c0 .03.03.06.04.1 0 .02 0 .05-.02.07-.03.03-.04.02-.04.02l.01.05.02.06.02.07c0 .03 0 .04.02.05l.06.12.05.07.06.06c.02 0 .02.03.03.04l.03.05c.01 0 .03.01.03.03h-.02c-.02 0-.03.02 0 .02l.07.02c.04.01.14.06.24.08l.32.08.22.06.18.02c.05 0 .09.01.07 0a1.2 1.2 0 00-.16-.12l-.14-.06-.07-.08-.05-.06h.02l.15.03.06.02a20.92 20.92 0 00.32.02l.02-.02-.06-.02-.04-.02-.04-.02a1.84 1.84 0 01-.12-.08h-.04l-.05-.1c-.02 0 .01-.01.01-.01s.03.02.17.01a12.36 12.36 0 00.3-.03l-.07-.02h-.03l-.07-.05c-.02 0-.02-.02-.03-.02v-.02c.02 0 .06-.04.08-.05l.05.01.05-.01h.08l.07.01.05-.01v-.04l-.01-.07s-.02 0-.01-.01l.05-.04.07-.03s-.02-.06 0-.07l.02-.04.02-.01h.16l.1.02h.1c.02.01.07 0 .07 0l-.03-.07-.01-.09s-.06 0-.04-.01l.11-.07.06-.02.07-.03.07.03c.04.02.05.03.1.03.04 0 .03.01.07.02l.06.03.02-.03-.05-.1-.11-.2s.13-.05.23-.06c.02 0 0-.05 0-.1v-.06l.1-.04.22-.08.1-.01.07-.03c.05 0 .13-.02.13 0 0 0-.02.03-.06.04-.04 0-.06.03-.1.06-.06.04-.08.04-.08.06 0 .01.03.03.04.08.02.05.05.12.05.16v.13c-.02.03-.02.09-.03.15l-.02.12c0 .04 0 .1-.02.15l-.06.23-.03.11-.02.1a1.49 1.49 0 01-.17.4l-.15.18-.06.07-.1.08a3.2 3.2 0 01-.43.23c-.03 0-.05.02-.07.04-.03.02-.14.03-.29.08a3.4 3.4 0 01-.34.08c-.04 0-.07 0-.13.02l-.25.04c-.09 0-.22.02-.28 0l-.16-.01-.17-.05-.35-.1c-.11-.04-.26-.07-.33-.08l-.08-.02.16.05zM14.01 8.9l.15-.14.04-.01h.05l.05-.02.08-.03.05-.02.04-.01h.05l.07-.03c.02 0 .02 0 0 0l-.14.02h-.26l-.3.01h-.1l-.03.02-.12.14-.15.17c-.05.04-.08.06-.07.07l.01-.01.03-.02.06-.02.04-.01.06-.03a.35.35 0 01.06-.03h.02l-.06.05-.14.09-.1.06-.08.08.1-.03c.1-.03.2-.07.3-.13.1-.05.24-.12.29-.17zM2.09 16.4l.01-.03h.03l.03-.06c0-.01-.03 0-.02-.03a.18.18 0 00.03-.05l.02-.04.03-.01.03-.04h-.03l-.12.14-.08.1-.02.03h.04l.05-.01zm12.83-9.45l.05-.1c.03-.05.04-.04.05-.05.01-.01.04 0 .06-.02l.06-.02.02-.02h-.05l-.06.02-.12.04-.1.03a.34.34 0 01-.1.02v.01h-.03l-.04.14-.14.22-.03.05h.06s.02 0 .04-.03l.09-.08.07-.06.14-.1c.03-.02.02-.02.03-.05zm-2.76 4.77v.01c0 .03-.06.06-.03.05l.09-.04a.45.45 0 00.08-.08l.06-.05c.03-.02.05-.05 0-.02-.05.03-.07.06-.12.08l-.08.05zm1.5-1.94l-.03.01-.13.04-.06.02h-.07l-.07.01-.11.01c-.07 0-.1.01-.13.02l-.14.06a.15.15 0 00-.07.05l-.08.1-.07.06-.05.05-.05.04-.04.02v.01a.1.1 0 00.05-.01l.04-.03h.05l.1-.06c.03 0 .07-.03.11-.05l.1-.06.04-.01c.03 0 .02-.01.05-.02l.09-.03c.04 0 .1-.05.2-.09l.22-.1c.04 0 .03-.01.06-.02h.02c-.02-.02 0-.03-.02-.02zm1.1-1.97h-.08l-.08.04v-.02h-.24l-.07.1-.05.08-.04.07-.08.09-.1.08c-.06.04-.12.06-.1.06.01 0-.02.02 0 .01h.03l.08-.05.15-.08.07-.04.03-.04.1-.07.1-.08c.02 0 .04 0 .05-.02l.1-.06.12-.07zM9.63 9.9l-.13.01c-.03 0-.09 0-.12.02l-.1.07c-.03.02-.18.06-.24.07a3.37 3.37 0 00-.56.2l.12-.03.15-.05c.03 0 .05 0 .1-.03l.1-.04.16-.05.17-.05.08-.02c.04 0 .08 0 .12-.02a.76.76 0 01.12-.03l.11-.02.07-.02c.03-.02-.09 0-.15 0zm3.86 6.66c-.06 0-.02-.05.04-.04.14 0 .03.04-.04.04zm-1.38-.26l-.03.03-.08.07c-.05.02-.04 0-.04 0l-.06.02-.08.02v-.02l-.04-.03c-.02-.01-.01-.02.01-.08.01-.02.05-.04.09-.06l.09-.05h.08c.08-.02.08 0 .08.03l-.02.07zm-6.91-3.63l.1-.05.08-.04c.02 0-.04.04-.06.06-.01.03-.03.03-.08.06-.04.03-.1.08-.12.08-.02.01-.04.03-.07.02-.03-.01.02-.04.15-.13zm3.11 3.56c0-.03.06-.06.22-.14.17-.08.08.01-.06.1l-.1.04c-.05.01-.06.02-.06 0zm.91-2.3l.14-.08c.1-.04.14-.02.14 0l-.03.1c0 .03-.06.04-.09.06-.03.02-.07.05-.1.05l-.08.02c-.03.01-.03.01-.03-.05 0-.02 0-.07.05-.1zm.59-.35l.07-.03.12-.07.13-.06.1-.07.1-.05.08-.06c.02-.02.03.01 0 .04l-.05.05c-.03.02-.1.1-.2.15l-.2.12a.6.6 0 01-.18.08c-.04 0 .03-.1.03-.1zm.81-.43c0-.02.05-.04.05-.04l.07-.05.05-.01.07-.04c.03-.02 0 .01-.02.03l-.07.03-.1.06c-.05.04-.05.03-.05.02zm.47-.23c.06-.04.04-.04.08-.05.05 0-.05.06-.1.1-.04.03-.06.02-.06.02-.02 0 .03-.03.08-.07zm-.13 2.55c-.02 0-.03-.05.02-.1.06-.05.1-.09.14-.1l.24-.07c.12-.02.2-.06.25-.05.06 0-.01.05-.02.07a4.83 4.83 0 00-.23.16l-.13.04-.07.04-.06.04-.09.02c-.05.01-.07 0-.07 0l.03-.03c.02-.01 0-.02-.01-.02zm.73-.95c.03-.04.08-.06.13-.11s.08-.05.08-.05l.05-.04a.22.22 0 01.06-.05l.07-.06.1-.06a.49.49 0 01.06-.06l.21-.17.28-.2.27-.17.04-.02.12-.1.18-.1.02-.06a.78.78 0 00.12-.08l.1-.05c.05-.04.08-.07.09-.05l-.03.06-.1.16-.09.13c-.02.04-.02.08-.11.16-.1.08-.1.11-.14.14l-.07.08-.18.11-.3.22a.32.32 0 01-.08.03s-.03.05-.05.05c-.03.01-.03-.01-.04-.01l-.02-.03.03-.05c.02-.03.02-.04 0-.04-.03 0-.1.04-.1.04l-.11.09-.11.06-.08.06-.13.07a6.8 6.8 0 00-.22.12c-.05.02-.08.02-.05-.02zm1.38-1.24l.15-.09.09-.05-.01-.02.04-.03.11-.07.1-.05c.08-.03.04 0 .02.04l-.04.06c0 .02-.04.02-.07.06a.75.75 0 01-.15.08l-.1.04-.09.04c-.03 0-.04 0-.07.02-.04 0-.02 0 .02-.03zm-.98 1.25s-.04.01-.05.04c-.05.07-.06-.01-.04-.03l.06-.05h.03v.04zm6.9.8l-.04.01-.1.04-.17.07-.13.06-.13.07-.37.16-.39.17a22.76 22.76 0 01-1.18.43.34.34 0 01-.07.01c-.03 0-.03 0-.02-.01l.02-.03h-.03l-.05.02a1 1 0 01-.12.04h-.19l-.04-.02-.06.02h-.02l-.03.01-.08.02-.1.02h-.04c-.02 0-.04.02-.09.02l-.14.01h-.16c-.02 0-.03 0-.04-.02l-.04-.01-.03-.02a.3.3 0 01-.05 0c-.01 0-.01-.02-.03-.02a.2.2 0 00-.07 0h-.03l-.05.01h-.05a.2.2 0 00-.05.01h-.06l-.05.02h-.16l-.04.01h-.05l-.04.01h-.07l-.04.01h-.07l-.04.02h-.1v-.04c0-.02-.02-.04-.03-.05l-.03-.05c0-.02-.01-.02-.03-.03l-.05-.01-.03-.02h-.09l-.08.01h-.07c-.04 0-.04.02-.06.02l-.07.02-.1.01-.06.02h-.05-.05v-.07c0-.04 0-.04-.02-.06-.02-.01-.02-.02-.02-.03 0-.01-.02 0-.02-.02l-.01-.03-.02-.01-.03-.01-.1-.02h-.07-.04a.6.6 0 00-.11.03l-.13.05-.05.01c-.02 0 0 0 0-.02l.01-.02.01-.02v-.04c0-.02 0-.02-.02-.03l-.02-.02v-.02h-.08l-.04.01-.05.01h-.04l.03-.02.03-.03.02-.01.08-.04.06-.02.04-.01.04-.03.02-.02.03-.02h.02v-.02l.04-.01v-.01h.03l.02-.02v-.01h.03l.02-.02.03-.01c.01-.02.02-.02.03-.02l.03-.01.02-.02.03-.01s0-.02.02-.02.02 0 .03-.02l.03-.01s.02 0 .03-.02h.03l.03-.02.02-.02c.01 0 .02 0 .03-.02h.03c0-.02 0-.01.01-.01.02 0 .02-.01.03-.02l.04-.02.04-.04.1-.07.2-.16.13-.1.2-.16a.92.92 0 01.15-.11c.04-.03.05-.03.07-.03l.02.02.03.08v.1l.04-.05.14-.23c.06-.12.06-.15.08-.2l.06-.15.03-.04a16.51 16.51 0 00-.2.17l-.27.21-.25.21-.18.14-.17.1-.22.13-.22.13-.16.09h-.01c0 .02-.03 0-.03 0v-.02l.02-.01.05-.04.11-.07.08-.05a.1.1 0 01.03-.02l.01-.01.02-.02.02-.02.05-.03.04-.02.03-.03a.55.55 0 01.07-.05c.02 0 .02-.02.03-.02l.06-.05.28-.2.15-.11.07-.06c.02 0 .02 0 .03-.02l.07-.04s0-.02.02-.02l.02-.01.05-.04.05-.04c.02 0 .02-.02.04-.03l.08-.06.03-.03.03-.01.03-.02.04-.05c.03-.02.15-.13.18-.14l.06-.06c.02 0 .04-.02.06-.04l.07-.07.04-.03.05-.03.07-.04.06-.04.08-.07a1.92 1.92 0 00.26-.26l.1-.1.04-.04.04-.04.06-.08.04-.05c0-.02 0-.01.02-.02l.02-.03c0-.02.02-.03.04-.05l.03-.03c0-.02.01-.02.02-.02l.04-.05.04-.03.04-.06.06-.05.01-.03.03-.02.05-.06.06-.06.02-.03.06-.06a.72.72 0 00.07-.08l.02-.02v-.02-.02c0-.01 0-.02.03-.04l.1-.11.1-.09.04-.04.06-.07.06-.06.04-.05c.02 0 .06-.07.08-.09l.08-.1.17-.2.15-.18.08-.1.13-.16a.58.58 0 00.08-.1l.06-.06.03-.04.03-.05.1-.12.07-.1.09-.1.08-.13.07-.12.04-.08.01-.07c.02-.01.02-.03.02-.04l-.03.05-.07.1-.12.16-.12.2-.13.2-.09.13-.12.14-.2.25-.19.2-.2.22-.24.24-.2.2c-.05.06-.16.15-.23.21l-.15.13a.39.39 0 01-.08.05l-.06.04-.14.14-.16.15-.08.09-.03.03-.12.15a.23.23 0 01-.1.07l-.02.01-.04.03-.1.09-.1.1-.11.06-.16.1-.14.11-.15.1-.14.11-.1.07a.47.47 0 00-.1.08l-.35.26a5.3 5.3 0 01-1 .58c-.07.04-.17.09-.2.12l-.28.15-.2.1c-.07.05-.25.12-.33.16l-.28.13-.1.04-.07.03-.05.02h-.03s0 .02-.02.02c-.01 0-.02-.01-.01-.03 0-.02.02-.01.03-.02l.04-.02c.01 0 .01-.02.04-.02s.04-.03.05-.03l.04-.02v-.01l.03-.01.02-.01c.02 0 .02-.02.03-.02l.02-.02.02-.01.03-.02.03-.02-.06.03a.39.39 0 01-.07.04l-.08.03-.42.2s-.41.2-.51.23l-.33.13-.4.15a5.8 5.8 0 01-.42.14l-.32.1-.39.12-.35.1-.31.08c-.15.05-.4.1-.5.14l-.27.09c-.03 0-.05 0-.05-.02l.04-.02.25-.09.45-.13.45-.13a8.28 8.28 0 011.06-.33c.1-.03.32-.1.4-.14l.35-.13.3-.11.05-.03h.03l.03-.01.01-.02h.03l.01-.01h.03l.02-.03h.03l.02-.02h.03l.02-.03h.03c.01-.01.01-.02.03-.02h.02l.03-.02.02-.01c.01 0 .03 0 .07-.03l.28-.13.12-.06h.04l.04-.03.03-.02h.04l.03-.02.2-.1.13-.07.12-.06.06-.04.1-.05c.04-.01.06-.01.14-.05l.14-.08s.02 0 .05-.03l.13-.07.12-.06.16-.1.12-.08.04-.03.02-.01h-.04v-.03l.04-.03.02-.02.03-.01.03-.01h.01l.02-.03.04-.02.06-.03.05-.03.04-.03.04-.03a.45.45 0 00.06-.04c.02-.02.02 0 .03-.02l.04-.03.03-.02.04-.02h-.03l.03-.02a.78.78 0 00.05-.04c.03-.01.03-.02.05-.04l.05-.03.1-.08c.03-.01.05-.04.05-.04l-.06.03c-.03 0-.09.04-.13.05a1.32 1.32 0 01-.28.05h-.08v.06l-.03.06-.02.03v.01a.2.2 0 01-.02.07.46.46 0 01-.08.1c-.02 0-.12.08-.14.09l-.05.02-.1.05a1.6 1.6 0 01-.37.12l-.15.01c-.04 0-.05.01-.09.03a.4.4 0 01-.1.02h-.09l-.03.03h-.06l-.09.02h-.07c0-.01 0-.03.02-.04l.02-.03.03-.04.23-.22.15-.16.06-.07.04-.02c.02 0 .03-.02.08-.05l.16-.11.17-.13.18-.14.12-.09.09-.07c.03-.01 0 0 0 .02l-.04.04-.04.04-.03.02.06-.02a.86.86 0 00.12-.07l.13-.09.1-.08c.06-.03.11-.1.16-.14.05-.04.13-.15.15-.18l.09-.08.07-.07a.47.47 0 01.09-.1l.16-.13.14-.13.11-.13.12-.12.1-.1.07-.1.07-.1.06-.09.04-.04c.01-.02 0-.02.02-.03v-.02l.01-.02-.01-.01V12l.01-.02h.02v-.03l.02-.02-.02.01c0 .02-.01.01-.03.02l-.04.04c-.01.02-.03.02-.05.03l-.03.03-.03.03-.04.03-.02.01v-.02-.01l.03-.02c0-.02 0-.03.02-.05l.04-.05a.13.13 0 00.03-.05l.01-.01.01-.02.03-.03.05-.06.04-.03c.02-.01.03 0 .05-.02.03-.03.09-.05.11-.06l.18-.13.16-.11.04-.01.09-.07a.6.6 0 00.12-.1l.17-.15.09-.09.05-.05-.02.02-.07.04-.08.04a.42.42 0 01-.09.02l-.04.01-.05.06c-.03.03-.08.08-.14.11l-.16.14a6.9 6.9 0 01-.54.36l-.05.01c-.02 0-.05.02-.05 0s.01 0 .05-.03a.53.53 0 00.07-.06l.04-.04.07-.06.09-.07c.01-.01 0-.02.06-.08l.08-.08.03-.02.14-.14.16-.16.1-.08.09-.1.06-.06c.01-.01 0-.02.02-.03l.02-.04h-.01l-.04.03c-.02.02-.03.04-.08.07-.03.04-.08.07-.12.1l-.12.1-.06.05-.13.13-.16.14-.22.16c-.06.05-.07.04-.07.03v-.02l.02-.04.07-.07.09-.08.06-.06c.02-.01.02-.02 0-.01l-.08.06-.07.05-.06.06a.2.2 0 01-.04.04.16.16 0 00-.05.04l-.05.04-.12.09-.14.1-.09.06-.04.04a.3.3 0 01-.06.05l-.25.17a4.15 4.15 0 01-.82.44c-.15.07-.16.07-.17.06-.02 0 .02-.02.05-.04l.06-.04.04-.02c0-.01 0-.02.02-.02s.06-.05.11-.08l.1-.06h.02l.06-.05.07-.04.04-.02.06-.04.05-.04-.02-.01c0-.01 0-.02-.02-.01l-.1.03-.06.04-.06.05-.1.06-.14.07-.07.05-.1.05c-.04.03-.1.05-.14.09a.63.63 0 00-.1.07l-.04.06h-.03l-.04.03-.05.05c-.02.01-.01.02 0 .02l.1.02.08.01c.02.01 0 .03-.03.05l-.06.04-.11.08-.19.12-.16.09-.2.12c-.06.03-.12.06-.18.07l-.1.03-.1.03-.11.05c-.02.01 0 .02.02.02.03 0 .03.03.03.03l-.04.08a.68.68 0 01-.05.05l-.02.05-.14.13-.18.17c-.07.06-.27.18-.37.23l-.25.13a11.78 11.78 0 01-1.1 1.02l-.35.27-.15.1-.15.1c-.1.06-.16.1-.18.13-.03.02-.07.04-.08.03h-.04c-.03 0-.02-.02-.01-.03a.57.57 0 01.08-.05c.04-.03.07-.04.08-.06l.08-.05.3-.23.52-.45.4-.36c.1-.11.25-.27.3-.3l.09-.12-.09.05-.14.08h-.03c0-.02 0-.03.06-.08l.16-.17.16-.17.1-.07.2-.18.1-.08.02-.06c.01-.04.03-.06.08-.1l.18-.12.07-.06.16-.12a6 6 0 01.18-.12l.08-.04.13-.06c.02-.02-.1 0-.16.03a6.53 6.53 0 01-.32.18l-.2.13-.17.1c-.04.01-.13.07-.18.1l-.23.1-.1.06c-.02 0-.04 0-.04-.02l.01-.03.05-.05.07-.04c.03-.02-.02 0-.04 0l-.1.02-.1.02-.13.02c-.03 0-.05 0-.06.02l-.09.06-.1.08c-.02.02-.02 0 .02-.05.03-.04.07-.06.08-.07l.04-.03.01-.02.06-.03h.01v-.04l.24-.13.35-.22a.76.76 0 01.19-.08h.05l.06-.03.07-.05h.06c.04 0 .05.02.06 0 .02 0 .02 0 .05-.07a.97.97 0 01.18-.23l.17-.18.13-.13a.33.33 0 00.06-.08c0-.01 0-.05.03-.07l.08-.12.2-.15.25-.2.17-.13.12-.1c.02 0 .03-.03.05-.03v-.02l-.1.05-.2.12-.22.14-.17.14-.22.17c-.05.04-.1.09-.13.1-.03.03-.02 0 .01-.02l.05-.04-.17.07-.2.1-.19.1c-.02.01-.05.02-.05 0s.03-.03.07-.06c.05-.02.1-.06.15-.1l.15-.1c.03-.03.04-.02.07-.03l.17-.08.17-.1.2-.13a.4.4 0 00.08-.06l.05-.04c.03-.01.04-.03.03-.03 0 0-.06.01-.1.04-.05.02-.08.06-.18.12l-.17.1-.1.04c-.03.02-.02 0 .02-.03l.05-.04a.13.13 0 00.05-.04c.01-.02-.06.03-.1.06l-.22.1-.18.1c-.03 0-.04.01-.04.02h.04c.02 0 0 0 0 .01l-.04.03c-.02 0-.03.02-.05.05l-.15.15-.24.15-.19.1a.92.92 0 01-.37.11h-.07l.01-.04.02-.02h-.04s-.02 0 0-.03c0-.02-.02 0 0-.02l-.1.05c-.03.02-.05.03-.08.03h-.04c-.03 0 0 0 .04-.03l.08-.06.03-.02c-.01 0-.02-.01-.01-.03h-.03l-.11.06-.19.08c-.06.04-.15.07-.15.07h-.07l-.1.04-.08.02s-.1.05-.19.07c-.08.03-.2.09-.34.12l-.3.07-.13.01-.08.04-.15.02-.2.05-.15.03-.1.03.05.02.06.03-.07-.01a.17.17 0 00-.09-.02l-.16.02-.13.03c-.06 0-.1.02-.15.03-.03 0-.01.02.02.03l.02.01.04.01.12.04c.03.01.05.03.03.04v.03c0 .03 0 .1-.12.19l-.11.1s-.03.05-.09.1l-.26.2-.31.22c-.06.05-.08.09-.08.09l-.01.04c-.02.02-.04 0-.07-.01-.02-.01-.04 0-.05-.02l-.02-.03-.04-.01-.02-.05s-.03 0-.02-.02c0-.02-.04-.04-.02-.06l.03-.02v-.06c.02-.02 0-.04 0-.06 0-.02 0-.04.02-.07l.04-.08.09-.14.1-.14.12-.15.18-.24.07-.08c0-.02.04-.04.05-.06l.01-.02-.1.04c-.05 0-.1.04-.12.04-.02 0-.03.02-.05.04-.02.01-.08.03-.09.02v-.01l-.33.1-.3.1-.2.09-.28.13-.28.12-.15.07-.22.14a.92.92 0 01-.22.1c-.02 0-.02-.01 0-.03l.15-.08.18-.1.14-.1.13-.08.11-.07.14-.09.08-.04.04-.02.19-.1.1-.05.16-.1h.02l.11-.06.16-.05s.04 0 .06-.04l.04-.03s-.04.01-.02-.02l.05-.1s.08-.02.2-.1c.14-.08.22-.12.26-.16l.13-.08.24-.13c.1-.06.24-.1.3-.13l.17-.07c.03 0 .09-.03.1-.04.02-.01.02-.02-.04 0-.06 0-.21.04-.26.05l-.19.06-.07.03-.36.1-.08.05-.04-.02-.2.03c-.06.02-.13-.02-.13-.02l-.16.07-.22.09c-.09.03-.1.07-.1.07l-.1.02-.06.03c-.04 0-.1.04-.1.04l-.05.01a.35.35 0 00-.05.02l-.02.03-.15.06c-.02 0 .06-.09.1-.11l.08-.04c.02-.02.04-.02.05-.02l.02-.02.05-.04.14-.12.18-.12.03-.01c.02-.02.04-.02.07-.06.03-.03.05-.02.08-.04a.34.34 0 01.07-.04l-.02-.01H6.4c-.02-.02-.03-.02-.05-.02l-.02-.02c-.03 0-.06 0-.1.02l-.5.24-.15.05c-.27.13-.61.28-.5.16.12-.12.71-.46 1.01-.63l.38-.22h-.04l-.07.01h-.01a5.53 5.53 0 01.43-.28c.1-.07.33-.19.4-.22.05-.04.17-.1.32-.16l.33-.17.16-.08.06-.02c.02 0 .05-.03.09-.06l.07-.04.07-.04.03-.02.02-.02.07-.05c.03-.02.07-.06.16-.1l.21-.13.1-.04c.03-.01 0-.02-.02-.02l-.07-.02-.09-.04c-.03-.02-.02-.02-.01-.02s.02 0 .03-.02l.05-.01.04-.02.03-.01v-.07l.04-.03c.02-.02.02-.03.06-.04a.77.77 0 00.12-.04l.24-.06.29-.06.14-.04c.03-.02 0-.02-.03-.02l-.08.02c-.04.01-.14.04-.19.04-.05.01-.15.02-.29.06l-.4.11-.26.08a5.52 5.52 0 00-.5.23h.11l.03.02.04-.01h.05l.08-.02h.12v.01s.01.01-.02.06c-.03.05-.13.15-.25.24-.11.08-.2.12-.26.15l-.17.07h-.1l.03-.01c.02 0 .01-.02.03-.03l-.05.02-.15.1-.2.11-.04.02-.19.1-.22.12-.06.02-.28.14-.25.13-.17.1c-.02.03-.04.02-.1.06l-.2.1c-.03.02-.05.01-.05.01l-.12.06-.1.05-.16.07-.14.08-.31.19-.18.1.1-.1a2.51 2.51 0 01.51-.33l.26-.14.18-.1c.08-.04.1-.07.04-.04l-.16.08-.05.01-.19.1-.42.25-.33.22-.35.24-.13.13-.12.17-.03.08-.12.1-.17.14-.17.15-.17.16-.19.16c-.04.04-.03.05-.03.05s0-.02.02-.02l.04-.03c.03-.02.05-.02.1-.03l.28-.12c.07-.02.16-.07.18-.08h.05l-.03.04-.15.2-.12.14c-.04.06-.21.24-.29.31l-.17.2-.05.01H2.9l-.05.03c-.02 0-.05.03-.05.03l-.05.1-.14.38c-.01.06-.15.3-.2.4l-.18.28-.02.05c.01.01.02 0 .02.02s-.01.01-.02.03c0 .02.01.03.02.03v.02h.01l.02-.03h.01L2.3 16V16v-.02-.02l.02-.04.06-.1.03-.05.01-.02.01-.02.02-.02.01-.01v-.02l.02-.02.01-.02.01-.01.02-.03.02-.04.02-.03a.1.1 0 01.03-.05c.01-.01 0-.02.07-.1a7.26 7.26 0 01.76-.92c.11-.1.17-.13.22-.17l.14-.08.03-.03.14-.1a4.16 4.16 0 01.24-.16h.03l.01.02c0 .02-.01.02-.02.03l-.07.07-.13.13-.08.07c0 .01 0 .03-.02.03l-.02.03-.02.03v.02l-.03.02-.01.03-.02.02-.11.11a5.15 5.15 0 00-.6.72l-.06.1-.02.03c0 .02-.03.03-.04.05l-.02.04-.02.04c0 .02-.02.03-.03.03l-.01.01-.01.04-.04.05v.01l-.02.04-.02.03-.02.03-.03.04-.02.02v.04c-.02 0-.01.01 0 .03l-.02.04-.03.08a.57.57 0 00-.05.13c0 .04-.03.1-.04.12 0 .03-.03.04-.02.05h.03c.01-.02.02 0 .04-.01a.72.72 0 01.13-.05l.23-.07a.8.8 0 00.14-.05l.1-.01.12-.03.14-.02c.03 0 0 .03-.03.04l-.21.05c-.12.03-.18.06-.25.1-.06.02-.1.06-.14.08l-.08.05-.02-.01.01-.03c.02 0 .01-.01 0 0a2 2 0 00-.42.31l-.13.14a.18.18 0 00-.04.1c0 .03 0 .08-.02.08l-.03.01-.04.02c-.02.01-.02 0-.03.02h.06l.1-.01a.2.2 0 00.08-.01h.09l-.1.08c-.05.04-.06.09-.06.1l-.04.05c-.02.04 0 .05 0 .06 0 .01 0 .02-.03.04l-.07.06-.06.08c0 .02-.02.06 0 .11 0 .05.1.14.14.19l.1.1.06.02.03-.01-.01-.05a2.95 2.95 0 00-.06-.07c-.03-.03-.05-.04-.05-.07 0-.02.02-.02.04-.04l.06-.1c.03-.02.02-.02.02-.05l.01-.08a.56.56 0 01.1-.11l.17-.14.13-.1.04-.03.04-.02c.02 0 0 0-.01-.01l-.04-.02-.04-.04-.02-.04.01-.06v-.06c0-.04.02-.05.04-.07v-.05l.1-.08.07-.05.18-.13a3.86 3.86 0 01.54-.3l-.06-.06-.04-.05c-.01-.01-.02-.04 0-.11.03-.07.24-.14.33-.16l.24-.05c.07-.01.07-.03.1-.05.03-.02.04-.01.04 0l-.02.02-.01.03-.03.02s0 .02-.03.05l-.16.09c-.06.02-.11.06-.13.1a.08.08 0 000 .08l.06.07c.03.03 0 .04-.05.04h-.1l-.1.05c-.05.02-.16.08-.2.12-.04.02-.14.12-.17.15a.18.18 0 01-.06.06.33.33 0 00-.12.13c-.04.07-.08.11-.08.15l-.01.08-.02.01h.06a1.43 1.43 0 00.15 0h.14c.01.01.02.02.01.03h-.03-.05l-.08.01c-.02 0-.04 0-.08.03l-.1.06c-.02 0-.04 0-.07.03a.32.32 0 00-.1.1c-.02.03 0 .09 0 .08l.05.04c.02.03.02.05.01.07v.15c0 .07.09.2.13.25.04.05.14.13.17.15l.08.05.04.03.04.05v-.02l-.03-.05.01-.05c0-.03-.03-.08-.08-.14-.04-.07-.06-.08-.06-.1-.01-.02 0-.04 0-.07l.02-.1a.43.43 0 01.1-.17l.08-.07.13-.11.05-.03.04-.02.04-.02.05-.03h.03l.02-.02.04-.02.05-.03.06-.03c.03 0 .06-.03.07-.03h.02l.08-.02.02-.01h-.11l-.13-.01h-.12c-.01 0-.02-.02-.01-.03 0-.02 0-.04.04-.08l.06-.08.06-.05a.74.74 0 01.13-.1c.07-.05.18-.08.26-.1l.2-.05c.02-.01.14-.03.23-.03h.21l.05-.02.2-.1c.1-.05.15-.06.23-.08l.26-.07c.1-.03.12-.02.27-.05l.16-.03.04-.02v-.02h-.04c-.01-.01-.02-.01-.02-.03v-.07l-.01-.06-.02-.06c-.02-.07-.07-.1-.11-.12a.35.35 0 00-.13-.06l-.12-.03c-.04 0-.06-.02-.07-.03 0-.01.02-.02.05-.02h.11l.18.05.13.03.13.04c.04 0 .08.03.12.06l.1.06a.1.1 0 01.05.06c0 .02.02.03.03.04 0 .01.03.03.03.05v.03h.04c.02.01.02.02 0 .02l-.23.05-.36.1c-.13.03-.25.05-.33.08l-.23.08-.2.1-.17.08-.13.04h-.15l-.15.05-.15.05-.14.05-.05.03c-.01.02-.04.03-.07.04l-.08.05c-.02.01-.01.02-.02.03 0 .01 0 .02-.02.02l.02.01.01.02h.2c.03.02.12.01.19.01.06 0 .06 0 .1.02l.09.03c.02 0 .02.02.01.03l-.03.04c-.01.02-.03.01-.03 0l.01-.02v-.01l-.03-.01c-.02-.01-.02-.03-.07-.02h-.12l-.08.02h-.04l-.07.02-.09.02-.06.03-.05.01c-.01 0-.04.01-.05.03-.02 0-.04.02-.07.05-.02.04 0 .06 0 .07.02 0 .01.01.01.03l.02.04.02.04c0 .02-.02.02-.06.08l-.1.15v.11c.01.03.01.04.03.04l.04-.03.18-.1.13-.07.07-.05a.43.43 0 01.07-.03c.02-.01.03-.03.06-.03s.04-.01.04-.02l.08-.04.07-.04a.6.6 0 01.06-.02l.1-.02.1-.02h.16l.04-.02.02-.01.05-.02.1-.01.16-.01.32.01.21.01h.12l.1.01h.09c.02.01.01 0 0 0 0-.01 0-.03-.02-.04 0 0 0-.03-.03-.06l-.1-.1-.13-.08-.06-.04.01-.02h.1l.07-.02h.08l.05-.01h.05c.01-.02.03-.02.07-.04l.04-.03c.02-.1-.03-.14-.04-.15l-.06-.06a.48.48 0 00-.11-.06c-.03 0-.02-.02-.04-.02s0 0 0-.02h.18l.17.05c.07.02.13.06.18.1.04.06.06.13.06.17 0 .04-.03.04-.08.07a.24.24 0 01-.12.04l-.17.02-.06.01c-.03.01.01.03.06.05l.16.13c.04.05.06.08.05.1v.04h.27l.04.01.11.01c.02 0 .02.03 0 .03a.3.3 0 00-.08.03l-.05.03-.05.01c-.02.02-.04.02-.07.02a.2.2 0 00-.08.04l-.07.02a.14.14 0 00-.06.03l-.07.04H6.5l-.09.03-.07.06-.08.02a.43.43 0 00-.08.06l-.08.03-.12.06c-.05.03.02 0 .11 0l.42-.04.3-.02.03-.01c.02-.02.08-.02.12-.02l.08.02.76-.05 1.02-.04 1.73-.04a14.55 14.55 0 001.28-.09l.36-.04c.09 0 .38-.04.48-.06.1 0 .18-.02.26-.03l.34-.01c.1 0 .31-.04.45-.07l.4-.06c.17-.03.27-.06.42-.1l.34-.07c.1-.02.22-.05.36-.1l.3-.07.29-.08.29-.1a25.9 25.9 0 00.94-.33l.4-.16c.1-.03.26-.1.29-.12l.07-.03.05-.01H18.07l.1.1c.04.02.04.03.04.04 0 0 .01.02.02 0l.2-.18.18-.17.1-.1.08-.08.07-.07.09-.08.04-.03.01-.01zM6.44 1.06l.07-.01.07-.03.2-.08.04-.01.06-.06.08-.06.08-.08.02-.04-.03-.02h-.1V.7L6.9.74a.49.49 0 01-.07.08c-.03.03-.03.04-.07.06l-.09.05-.1.05c-.08.02-.15.06-.19.06v.01l.02.02h.03zm9.6 9.5l.04.02s.16-.1.24-.19l.18-.18c.03 0 .06-.03.14-.13.1-.1.14-.15.11-.13-.03.02-.2.13-.22.17-.02.03-.21.15-.27.2-.07.04-.03.03-.14.07-.12.04-.13.02-.13.02s-.15.07-.26.1v.01l.1.03.2.01zm-8.8 1.14l.03-.01.05-.03.06-.03.06-.04.04-.04.05-.04.03-.02-.04.02-.07.04-.07.04-.04.02.03-.01c-.03.02-.1.06-.11.08l-.01.02zm9.24-1.14s.04 0 .02.06l-.08.11c-.04.04-.1.1-.05.06l.4-.33c.14-.12.46-.38.7-.61.23-.24.31-.3.42-.44.1-.14.2-.25.22-.23 0 .02.04.05.03.13 0 .07-.03.18-.03.18l.13-.2.07-.15c.02-.04.05-.1.08-.21a.33.33 0 01.08-.16s-.04-.03.02-.1l.12-.15.02-.02-.03.02-.18.16c-.03.02-.11.12-.17.16l-.1.07-.17.16-.25.29-.24.26c-.06.06-.26.3-.4.42l-.4.35-.21.17z" />
            </symbol>
            <symbol preserveAspectRatio="xMidYMax meet" viewBox="0 0 19 19" id="icon-platform-humble">
                <path
                    d="M13.2 14.1C11 14.1 14.3 2 14.3 2h-2.2s-.8 2.9-1.4 6h-2c.1-.6.2-1.3.1-2 0-5.2-3-4.2-4.4-3A7.7 7.7 0 002 8h1s.7-3.1 2.8-3.1C7.9 4.9 4.7 17 4.7 17h2.1s1.2-3.3 1.7-6.9h1.8l-.1 3c0 5.2 3 4 4.4 2.9a8.3 8.3 0 002.4-5h-1c0 .1-.7 3.1-2.8 3.1z" />
            </symbol>
            <symbol preserveAspectRatio="xMidYMax meet" viewBox="0 0 21 19" id="icon-platform-itch">
                <path
                    d="M4.216 2.093C3.475 2.524 2.014 4.17 2 4.603v.714c0 .906.863 1.702 1.647 1.702.941 0 1.726-.765 1.726-1.673 0 .908.757 1.673 1.698 1.673.942 0 1.675-.765 1.675-1.673 0 .908.805 1.673 1.746 1.673h.017c.94 0 1.747-.765 1.747-1.673 0 .908.732 1.673 1.673 1.673.941 0 1.699-.765 1.699-1.673 0 .908.784 1.673 1.725 1.673.784 0 1.647-.796 1.647-1.702v-.715c-.015-.431-1.475-2.078-2.217-2.51C14.48 2.014 12.881 2 10.5 2c-2.38 0-5.627.037-6.283.093zm4.518 4.5a1.988 1.988 0 01-1.71.97A1.994 1.994 0 015.64 7.01a1.833 1.833 0 01-.316-.41 1.93 1.93 0 01-.343.41c-.369.355-.865.553-1.381.552a.612.612 0 01-.187-.035 27.55 27.55 0 00-.118 2.05v.003l-.004.81c.014 1.622-.164 5.256.729 6.149 1.383.316 3.928.46 6.482.461 2.554 0 5.1-.145 6.482-.46.893-.894.715-4.527.73-6.148l-.005-.81v-.004a27.622 27.622 0 00-.119-2.05.616.616 0 01-.187.036 1.995 1.995 0 01-1.382-.551 1.937 1.937 0 01-.343-.41v-.001c-.09.154-.188.286-.317.41-.355.34-.845.552-1.382.552a1.988 1.988 0 01-1.71-.97c-.09.153-.2.294-.328.418a1.994 1.994 0 01-1.439.55l-.057.002a1.994 1.994 0 01-1.382-.552 1.902 1.902 0 01-.328-.418l-.002-.002zm-1.42 1.8h.002c.562 0 1.062 0 1.68.662.487-.05.995-.075 1.505-.074.51-.001 1.019.025 1.506.074.62-.662 1.118-.66 1.68-.662h.002c.266 0 1.328 0 2.068 2.038l.796 2.798c.589 2.08-.189 2.132-1.16 2.133-1.439-.052-2.235-1.077-2.235-2.102-.797.128-1.726.193-2.655.193-.93 0-1.86-.065-2.656-.193 0 1.025-.796 2.05-2.235 2.102-.97-.001-1.749-.052-1.16-2.133l.796-2.797c.74-2.039 1.803-2.039 2.068-2.039h-.002zM10.5 9.993c0 .002-1.514 1.365-1.786 1.85l.99-.039v.848c0 .04.399.023.796.005h.001c.398.018.796.034.796-.005v-.848l.99.039c-.271-.485-1.786-1.85-1.786-1.85z" />
            </symbol>
            <symbol preserveAspectRatio="xMidYMax meet" viewBox="0 0 19 19" id="icon-platform-minecraft">
                <path fill-rule="evenodd"
                    d="M16 2c.6 0 1 .4 1 1v13c0 .6-.4 1-1 1H3a1 1 0 01-1-1V3c0-.6.4-1 1-1h13zm-5 6H8v2H6v5h2v-2h3v2h2v-5h-2V8zM8 4H4v4h4V4zm7 0h-4v4h4V4z" />
            </symbol>
            <symbol preserveAspectRatio="xMidYMax meet" viewBox="0 0 19 19" id="icon-platform-nintendo-switch">
                <path
                    d="M10.84 17h2.32A3.84 3.84 0 0017 13.16V5.84A3.84 3.84 0 0013.16 2h-2.33c-.05 0-.1.04-.1.1v14.8c0 .05.05.1.11.1zm2.87-8.26a1.51 1.51 0 11-.01 3.03 1.51 1.51 0 010-3.03zM4.33 6.5a1.41 1.41 0 102.83 0 1.41 1.41 0 00-2.83 0zM9.13 2H5.83A3.84 3.84 0 002 5.84v7.32A3.84 3.84 0 005.84 17h3.28c.06 0 .12-.05.12-.1V2.1c0-.05-.06-.1-.12-.1zm-1.1 13.8H5.84a2.6 2.6 0 01-1.86-.78 2.6 2.6 0 01-.78-1.86V5.84c0-.7.28-1.36.78-1.86s1.16-.77 1.86-.77h2.19V15.8z" />
            </symbol>
            <symbol preserveAspectRatio="xMidYMax meet" viewBox="0 0 23 19" id="icon-platform-nintendo">
                <path
                    d="M13.5 17h-4a7.5 7.5 0 010-15h4a7.5 7.5 0 010 15zm.34-13.51H9.16A5.77 5.77 0 003.5 9.14v.72a5.77 5.77 0 005.66 5.65h4.68A5.74 5.74 0 0019.5 9.9v-.75a5.77 5.77 0 00-5.66-5.65zm-3.78 4.63V13H8V6h2.07l2.87 4.88V6H15v7h-2.06l-2.88-4.88z" />
            </symbol>
            <symbol preserveAspectRatio="xMidYMax meet" viewBox="0 0 19 19" id="icon-platform-origin">
                <path
                    d="M9.48.13c.04.1-.03.2-.08.27a4.71 4.71 0 00-.81 1.82c-.05.14-.04.24 0 .25a6.94 6.94 0 015.86 2.03 7.1 7.1 0 011.43 7.9 14.63 14.63 0 01-6.06 6.57c-.09.04-.2.05-.27-.04s-.04-.22.03-.3c.36-.5.6-1.08.74-1.68.03-.12.06-.25.05-.37-.04-.06-.12-.04-.18-.04a6.93 6.93 0 01-6.73-3.46 7.15 7.15 0 01-.08-7.03A14.58 14.58 0 019.18.03c.11-.06.26-.02.3.1zm-.36 6.63a2.75 2.75 0 00-2.35 2.7 2.73 2.73 0 005.34.85 2.78 2.78 0 00-.97-3.02 2.7 2.7 0 00-2.02-.53z" />
            </symbol>
            <symbol preserveAspectRatio="xMidYMax meet" viewBox="0 0 19 19" id="icon-platform-paradox">
                <path fill-rule="nonzero"
                    d="M17.5 9.97c-.1-.51.4-.95.16-1.46-.24-.51-1.43-.5-1.44-1.08-.02-.69.94-.35 1.35-.33 0-1.1-.43-2.05-1.58-1.29-.18 0-.46-.04-.55-.21-.35-.65.7-.8.74-1.31.02-.3-.35-.5-.46-.74-.08-.17 0-.38 0-.55 0-.08-.1-.08-.15-.1-.22-.06-.43.08-.65.02-.24-.06-.39-.29-.61-.4 0 .1-.17.21-.2.29-.17.22-.75 1.04-1.12.7-.15-.13-.11-.38-.1-.57.21-1.43-.29-1.58-1.51-1.77-.3-.06-1.06-.23-1.4-.13 0 .25.3 1.94-.23 1.86-.63 0-.3-1.7-1.2-1.9-.15.06-.36.08-.45.23-.13.19.13.8.18 1.02.08.29.06.69-.05.94v.03c-1.04 0-.93-2.35-2.56-1.21 0 .62 1.46 1.42.96 2.13a.6.6 0 01-.37.22c-.76.1-1.07-1.65-1.96-1.48a.44.44 0 00-.33.27c-.2.42.76 1 .9 1.42.08.23 0 .44-.01.65-.75 0-1.62-1.08-2.3-.4-.11.12-.23.25-.19.42.08.28.58.25.72.51l.02.04c.26.6-.33 1.07-.35 1.62 0 .26.2.43.11.74-.28 1-1.24-.14-1.7.3-.41.4.05 1.22.09 1.7.02.3-.15.53-.17.83-.02.25.19.46.24.7.1.33 0 .69.19.97.52.82 1.39-1.4 1.78-.47.31.76-1.28.72-1.32 1.3-.03.56.93 1.07 1.3 1.44.31.32.57.74.63 1.2.04.45-.17.92-.28 1.34.17 0 .28.08.47.02.81-.25 1.27-1.58 1.14-2.4-.1-.68-.48-1.27-.51-1.99-.04-.7.63-1.9-.02-2.41l-.1-.06c0 .08-.14.1-.24.1a.54.54 0 01-.35-.14c-.15-.11-.22-.28-.11-.46.15-.22.6-.19.65-.5.11-.71-1.32-.84-.45-1.7.17-.15.4-.29.63-.27.41.04 1.38.33 1.32.86-.02.25-.22.46-.13.72.1.29.48.25.6.51.14.37-.16.61-.12.96 0 .07.04.1.11.17.13.1.36.13.43.28.18.42-.3.91.33 1.14 0-.28-.05-.68.19-.83 0 .07.13.17.18.22.2.33.3.63.7.75.03-.63-.33-1.15-.33-1.16.3 0 .49.4.82.3.31-.08.04-.44-.04-.59-.2-.42.1-.76-.03-1.16-.13-.42-1.2-.7-1.54-1.03-.11-.11-.23-.28-.17-.45.2-.65.95-.27 1.46-.42.25-.08.43-.25.6-.44.24-.26.4-.72.26-1.08-.1-.23-.24-.38-.2-.67.14-1.16 1.98-1.1 2.77-.68.41.2.8.7.58 1.22-.19.43-.7.19-1.08.34-.31.15-.74.82-.85 1.12-.17.47.3.84.32 1.3.05 1-.4 1.91-.6 2.82-.03.18.11.4.02.56-.15.24-.43.15-.67.24-.18.08-.26.21-.42.33-.34.2-.74.32-.78.8.22 0 .37-.12.61-.14.04 0 .04.02.06.04v.04c-.06.42-.37.78-.19 1.21.3 0 .35-.68.84-.5.05 0 .05 0 .05.05.1.32.13.59.32.87.03 0 .2-.04.18-.17-.02-.3-.05-.74.04-.99.15-.38.39-.32.33-.83.08 0 .17-.14.24-.16.6-.2.69-.55 1.43-.53.19 0 .37.02.52.1.13 0 .07-.21.04-.36-.26-.9-.6-1.77-.6-2.8h.15c0 .12.45.72.52.88.11.19.46 1.02.78.83.15-.1.24-1.14.31-1.39.32-.87 1.2-1.06 1.73-.22.5.8.18 2.47-.45 3.1-.24.22-.6.24-.83.45-.24.23-.02.67-.08.97-.03.29-.22.55-.42.76-.47.46-1.06.67-1.52 1.08-.2.18-.24.48-.48.6-.24.1-.54-.04-.78.03l-.54.34c-.33.18-.87.48-1.06.54 0 .72 1.7.34 2.06.15.24-.13.32-.48.58-.6.26-.1.48.16.77.07.26-.1.5-.3.75-.48.44-.3.92-.57 1.33-.93.15-.13.37-.3.43-.48.1-.3-.37-1.06.48-.95.65.1 1.3-1.25 1.43-1.73l.22-1.1.28-.66c.05-.52-.43-.5-.5-.9zM2.72 11.4c-.52.11-.89-.5-.65-.93.1-.2.26-.27.43-.36.2.01.39.03.54.17.43.34.2 1-.32 1.12zm3.49-3.92c-.06.02-.13-.02-.19-.04-.66-.28-.39-.72-.13-1.21.5.2.61 1.1.32 1.25zm.92 2c.62.3.84.83.8 1.1 0 .1-.05.15-.05.15s-.15.06-.34-.02c-.48-.17-.4-.72-.4-1.23zm4.9 2.22c-.02.21-.11.3-.24.48-.24 0-.47-.12-.54-.34-.07-.2 0-.44.02-.65.05-.7.1-1.5.33-2.13.22.51.15 1.12.26 1.71.06.3.2.59.17.93zm3.33-3.06c-.31 0-.6.04-.92-.02-1.17-.23-.17-1.57.09-2.1.46.43 1 1.42.83 2.12z" />
            </symbol>
            <symbol preserveAspectRatio="xMidYMax meet" viewBox="0 0 30 19" id="icon-platform-pathofexile">
                <path
                    d="M3.76 15.37c.34-.57.36-.83.36-5.77V4.41l-.55-.7L3 3l2.92.11c3.25.12 3.98.27 4.93 1.04.8.68 1.11 1.42 1.11 2.7 0 2.32-1.53 3.7-4.13 3.7-1.07 0-.98-.25-.92 2.7.02 1.17.11 1.85.27 2.08.14.2.25.41.25.49 0 .08-.9.13-2.02.13H3.4l.36-.58zM8.1 9.15c.65-.38 1.23-1.52 1.23-2.4.01-1.16-1.07-2.3-2.18-2.3-.43 0-.45.04-.36.55.05.3.11 1.44.11 2.52 0 2.23.07 2.32 1.19 1.63zm4.96 6.62c-.71-.2-1.73-1.35-1.97-2.19-.43-1.56-.1-3.13.84-4.08a3.32 3.32 0 014.78 0 4.17 4.17 0 010 5.43c-.86.96-2.2 1.26-3.65.84zm2.6-1.58c.68-.93.61-2.88-.16-3.8-.6-.7-1.6-.74-2.15-.06-.93 1.2-.76 3.59.3 4.23.56.34 1.63.14 2.01-.36zm-2.15-2.03l.75-.92.91.88-.88.88-.78-.84zm4.36 3.17l.54-.6V9.44c0-4.94-.02-5.3-.34-5.83l-.34-.56h8.65l.09 1.17c.05.65.16 1.34.22 1.53.12.25-.05.17-.56-.28-1.05-.95-1.93-1.16-4.46-1.07l-.99.04v4.18h1.51c1.3 0 1.56.06 1.9.37l.4.38-.5.4c-.43.38-.68.42-1.9.42h-1.41v2c0 1.17.07 2.04.18 2.1.39.24 2.14.3 3.17.1 1.47-.3 1.97-.6 2.4-1.36.5-.99.44-.1-.19 2.26l-.17.65h-8.74l.54-.62z" />
            </symbol>
            <symbol preserveAspectRatio="xMidYMax meet" viewBox="0 0 90 19" id="icon-platform-playstation2">
                <path
                    d="M28.8 2v8H3v7H2V9h25.7V3H2V2h26.8zM88 2v8H62.3v6H88v1H61.2V9H87V3H61.2V2H88zM57.2 2v1H43.6v14H28.8v-1h13.7V2h14.7z" />
            </symbol>
            <symbol preserveAspectRatio="xMidYMax meet" viewBox="0 0 24 19" id="icon-platform-psn">
                <path
                    d="M20.5 14.3l-.5.2-4.5 1.6-2 .6V15l4.1-1.4 1-.4c.4-.1.6-.3.5-.4l-.5-.3h-1l-.7.2-1.1.4-2.2.7v-1.9a11.8 11.8 0 016.7 0c1 .3 1.7.7 1.7 1.2s-.4.9-1.5 1.3zm-6.4-4V5.7c0-.6-.3-1-.7-1.1-.2-.1-.3 0-.5.1l-.1.7V17l-3.2-1V2c1.2.2 2.7.6 4.4 1.2 1.4.4 2.3 1 2.8 1.7.6.7.9 1.7.9 3 0 1.2-.4 2-1 2.5-.7.5-1.6.4-2.6 0zM3.9 14.9c-1.2-.3-1.8-.7-1.9-1.2 0-.4.5-.9 1.5-1.3l.7-.3L8 10.7l.6-.2v1.9l-2.4.8-.7.2-.5.3c-.2.1-.1.2.1.4l1 .1 1.2-.2.7-.3.6-.2v1.6c-1.6.2-3.2.2-4.8-.3z" />
            </symbol>
            <symbol preserveAspectRatio="xMidYMax meet" viewBox="0 0 20 19" id="icon-platform-rockstar">
                <path fill-rule="evenodd"
                    d="M15 2a3 3 0 013 3v9a3 3 0 01-3 3H5a3 3 0 01-3-3V5a3 3 0 013-3h10zM9.86 4h-3.4L5 10.96h1.8l.53-2.53H8.67c.55.04.77.35.77.92 0 .47-.05.84-.05 1.2 0 .15.02.3.07.43l.06.14 1.31 1.4L9.7 15l2.41-1.46 1.8 1.4-.33-2.33 2.08-1.47h-2.3L13 8.8l-.24.4-1.1 1.92h-.26l-.08-.17a2.03 2.03 0 01-.14-.73c0-.4.03-.8.03-1.3 0-.67-.2-1.03-.71-1.16v-.02l.18-.03c.97-.2 1.42-.92 1.42-1.9C12.1 4.31 11.13 4 9.86 4zm-.52 1.45c.47 0 .97.12.97.72 0 .75-.56.95-1.22.95H7.65l.36-1.67z" />
            </symbol>
            <symbol preserveAspectRatio="xMidYMax meet" viewBox="0 0 19 19" id="icon-platform-steam">
                <path
                    d="M9.5 2C5.5 2 2.3 5 2 8.9l4 1.7a2.1 2.1 0 011.3-.4l1.8-2.6a2.8 2.8 0 112.9 2.8h-.1l-2.6 1.8v.1a2.1 2.1 0 01-4.2.4l-2.8-1.2A7.5 7.5 0 109.5 2zM6.7 13.4l-1-.4c.2.3.5.6 1 .8a1.6 1.6 0 002-2.1 1.6 1.6 0 00-2-.9l1 .4a1.2 1.2 0 11-1 2.2zM14 7.6a1.9 1.9 0 10-3.8 0 1.9 1.9 0 003.8 0zm-3.3 0a1.4 1.4 0 112.8 0 1.4 1.4 0 01-2.8 0z" />
            </symbol>
            <symbol preserveAspectRatio="xMidYMax meet" viewBox="0 0 19 19" id="icon-platform-twitch">
                <path fill-rule="nonzero"
                    d="M3.5 2l-1 2.6V15H6V17h2l1.8-1.9h2.9l3.8-4V2h-13zm11.7 8.5L13 12.7H9.5l-1.9 2v-2h-3V3.3h10.6v7.2zM13 6v4h-1.3v-4H13zM9.5 6v4H8.2v-4h1.3z" />
            </symbol>
            <symbol preserveAspectRatio="xMidYMax meet" viewBox="0 0 23 19" id="icon-platform-uplay">
                <path fill-rule="nonzero"
                    d="M14.8 17c-2.8 0-8-2.5-8-6.6 0-4 4-8.4 7.8-8.4C16 2 21 4.6 21 9c0 4.6-3.3 8-6.2 8zm3-10.5h-2v4c0 .3-.2.5-.5.5h-2.9a.5.5 0 01-.5-.5v-4H9.5v4.2c0 1.2 1.4 2.5 2.6 2.5H18V6.5zM7.6 4a1 1 0 110-2 1 1 0 010 2zM4.1 8.6C3.3 8.6 2 8 2 6.8c0-1.4 1-2.4 2.2-2.4.7 0 2.1.4 2.1 2S5 8.5 4.1 8.5z" />
            </symbol>
            <symbol preserveAspectRatio="xMidYMax meet" viewBox="0 0 19 19" id="icon-platform-wargaming">
                <path
                    d="M3.4 9.5a6 6 0 119.2 5.2c.3-1.3.5-2.6.4-4.2l1 .3a21 21 0 00-1.5-3.2c-.6 1-1.4 2-2.1 2.9l1.2-.1c-1 2-2.6 2.9-4.5 3.1-.5-2.1-.1-5.7 2.3-7.4l.3 1.2C10 6.6 11 5.6 11.8 5a6.7 6.7 0 00-3.7-.4l.7.6a9.7 9.7 0 00-5.3 5.3v-.9zM9.5 17a7.5 7.5 0 100-15 7.5 7.5 0 000 15z" />
            </symbol>
            <symbol preserveAspectRatio="xMidYMax meet" viewBox="0 0 19 19" id="icon-platform-xboxone">
                <path fill-rule="nonzero"
                    d="M15.5 14c.5-1.8-2.4-6-4-7.8 2.6-2.6 3.3-2 3.3-2a7.5 7.5 0 01.7 9.8zm-6-9.8c-.6-.3-2.6-1.4-3.9-1V3a7.4 7.4 0 017.8 0c-1.5-.3-3.7 1-3.9 1.1zm-2 2C5.8 8 3 12.2 3.4 14a7.4 7.4 0 01.7-9.8s.8-.5 3.2 2zm2 1.8c2.3 1.7 6.1 6 5 7.1a7.5 7.5 0 01-10 0c-1.1-1.1 2.7-5.4 5-7z" />
            </symbol>
        </svg>